<svg width="25" height="25" viewBox="0 0 25 25" fill="none" xmlns="http://www.w3.org/2000/svg">
<path d="M9.12732 2.19238L5.50732 5.82238" stroke="white" stroke-width="1.5" stroke-miterlimit="10" stroke-linecap="round" stroke-linejoin="round"/>
<path d="M15.5073 2.19238L19.1273 5.82238" stroke="white" stroke-width="1.5" stroke-miterlimit="10" stroke-linecap="round" stroke-linejoin="round"/>
<path d="M2.31738 8.04248C2.31738 6.19248 3.30738 6.04248 4.53738 6.04248H20.0974C21.3274 6.04248 22.3174 6.19248 22.3174 8.04248C22.3174 10.1925 21.3274 10.0425 20.0974 10.0425H4.53738C3.30738 10.0425 2.31738 10.1925 2.31738 8.04248Z" stroke="white" stroke-width="1.5"/>
<path d="M10.0771 14.1924V17.7424" stroke="white" stroke-width="1.5" stroke-linecap="round"/>
<path d="M14.6772 14.1924V17.7424" stroke="white" stroke-width="1.5" stroke-linecap="round"/>
<path d="M3.81738 10.1924L5.22738 18.8324C5.54738 20.7724 6.31738 22.1924 9.17738 22.1924H15.2074C18.3174 22.1924 18.7774 20.8324 19.1374 18.9524L20.8174 10.1924" stroke="white" stroke-width="1.5" stroke-linecap="round"/>
</svg>
