<svg width="9" height="5" viewBox="0 0 9 5" fill="none" xmlns="http://www.w3.org/2000/svg">
<path d="M4.33796 4.68219L8.37135 0.821652C8.39879 0.794214 8.41663 0.76266 8.42486 0.726991C8.43309 0.691322 8.42897 0.657024 8.41251 0.624098C8.40153 0.591173 8.38096 0.565106 8.35077 0.5459C8.32059 0.526693 8.28904 0.51709 8.25611 0.51709H7.54821C7.52626 0.51709 7.50568 0.521206 7.48647 0.529437C7.46727 0.537668 7.44943 0.550016 7.43297 0.566478L4.21449 3.6121L0.996002 0.566478C0.979539 0.550016 0.961704 0.537668 0.942497 0.529437C0.923291 0.521206 0.902712 0.51709 0.880762 0.51709H0.17286C0.139934 0.51709 0.10838 0.526693 0.0781985 0.5459C0.0480166 0.565106 0.0274381 0.591173 0.0164628 0.624098C0.0109752 0.635074 0.00685952 0.646049 0.00411571 0.657024C0.0013719 0.667999 0 0.678974 0 0.68995C0 0.717388 0.00411571 0.742082 0.0123471 0.764032C0.0205785 0.785983 0.0356695 0.805189 0.0576199 0.821652L4.09101 4.68219C4.12394 4.71511 4.1651 4.73158 4.21449 4.73158C4.26387 4.73158 4.30503 4.71511 4.33796 4.68219Z" fill="#2C3339"/>
</svg>
