<svg width="9" height="9" viewBox="0 0 9 9" fill="none" xmlns="http://www.w3.org/2000/svg">
<g clip-path="url(#clip0_352_4637)">
<path d="M4.09124 2.15668L0.057847 6.01721C0.0304089 6.04465 0.0125742 6.07621 0.00434303 6.11188C-0.00388908 6.14755 0.000226974 6.18184 0.0166903 6.21477C0.0276651 6.24769 0.0482435 6.27376 0.0784254 6.29297C0.108607 6.31217 0.140162 6.32178 0.173087 6.32178H0.880989C0.902939 6.32178 0.923518 6.31766 0.942724 6.30943C0.961931 6.3012 0.979766 6.28885 0.996229 6.27239L4.21471 3.22676L7.4332 6.27239C7.44966 6.28885 7.4675 6.3012 7.4867 6.30943C7.50591 6.31766 7.52649 6.32178 7.54844 6.32178H8.25634C8.28927 6.32178 8.32082 6.31217 8.351 6.29297C8.38118 6.27376 8.40176 6.24769 8.41274 6.21477C8.41822 6.20379 8.42234 6.19282 8.42508 6.18184C8.42783 6.17087 8.4292 6.15989 8.4292 6.14892C8.4292 6.12148 8.42508 6.09679 8.41685 6.07483C8.40862 6.05288 8.39353 6.03368 8.37158 6.01721L4.33818 2.15668C4.30526 2.12375 4.2641 2.10729 4.21471 2.10729C4.16532 2.10729 4.12417 2.12375 4.09124 2.15668Z" fill="#2C3339"/>
</g>
<defs>
<clipPath id="clip0_352_4637">
<rect width="8.42897" height="8.42897" fill="white" transform="matrix(0 -1 -1 0 8.4292 8.4292)"/>
</clipPath>
</defs>
</svg>
