<svg width="11" height="5" viewBox="0 0 11 5" fill="none" xmlns="http://www.w3.org/2000/svg">
<path d="M5.64648 4.94141L10.4316 0.361328C10.4642 0.328776 10.4854 0.291341 10.4951 0.249023C10.5049 0.206706 10.5 0.166016 10.4805 0.126953C10.4674 0.0878906 10.443 0.0569661 10.4072 0.0341797C10.3714 0.0113932 10.334 0 10.2949 0H9.45508C9.42904 0 9.40462 0.00488281 9.38184 0.0146484C9.35905 0.0244141 9.33789 0.0390625 9.31836 0.0585938L5.5 3.67188L1.68164 0.0585938C1.66211 0.0390625 1.64095 0.0244141 1.61816 0.0146484C1.59538 0.00488281 1.57096 0 1.54492 0H0.705078C0.666016 0 0.628581 0.0113932 0.592773 0.0341797C0.556966 0.0569661 0.532552 0.0878906 0.519531 0.126953C0.513021 0.139974 0.508138 0.152995 0.504883 0.166016C0.501628 0.179036 0.5 0.192057 0.5 0.205078C0.5 0.23763 0.504883 0.266927 0.514648 0.292969C0.524414 0.31901 0.542318 0.341797 0.568359 0.361328L5.35352 4.94141C5.39258 4.98047 5.44141 5 5.5 5C5.55859 5 5.60742 4.98047 5.64648 4.94141Z" fill="#8A9298"/>
</svg>
