<svg width="39" height="39" viewBox="0 0 39 39" fill="none" xmlns="http://www.w3.org/2000/svg">
<path d="M11.4239 0.136378C9.34911 0.234268 7.93224 0.565378 6.6936 1.0521C5.41167 1.55169 4.32513 2.2221 3.24405 3.30708C2.16297 4.39206 1.49724 5.47938 1.00116 6.76326C0.521072 8.00463 0.195812 9.42267 0.104162 11.4986C0.0125116 13.5746 -0.00776838 14.2419 0.00237162 19.5373C0.0125116 24.8327 0.0359116 25.4965 0.136532 27.5768C0.235592 29.6512 0.565532 31.0677 1.05225 32.3067C1.55262 33.5886 2.22225 34.6748 3.30762 35.7562C4.39299 36.8377 5.47953 37.5019 6.76653 37.9987C8.00673 38.4781 9.42516 38.8049 11.5007 38.8957C13.5763 38.9866 14.2444 39.0077 19.5383 38.9975C24.8321 38.9874 25.4986 38.964 27.5785 38.8653C29.6584 38.7667 31.0674 38.4344 32.3069 37.95C33.5888 37.4485 34.6757 36.78 35.7564 35.6942C36.8371 34.6085 37.5024 33.5204 37.9981 32.2357C38.4786 30.9955 38.805 29.5771 38.8951 27.5031C38.986 25.4216 39.0074 24.7571 38.9973 19.4624C38.9872 14.1678 38.9634 13.504 38.8647 11.4245C38.766 9.34506 38.4357 7.93287 37.9494 6.69306C37.4482 5.41113 36.7794 4.32576 35.6944 3.24351C34.6094 2.16126 33.5205 1.49631 32.2363 1.00179C30.9953 0.521698 29.5776 0.194488 27.502 0.104788C25.4265 0.0150883 24.7584 -0.00792166 19.4626 0.00221834C14.1668 0.0123583 13.5038 0.0349783 11.4239 0.136378ZM11.6517 35.3877C9.75042 35.305 8.71809 34.9891 8.03013 34.7247C7.11909 34.3737 6.47013 33.9494 5.78451 33.2704C5.09889 32.5914 4.67769 31.9401 4.32201 31.031C4.05486 30.343 3.73311 29.3119 3.64419 27.4106C3.54747 25.3557 3.52719 24.7387 3.51588 19.5326C3.50457 14.3265 3.52446 13.7103 3.61455 11.6546C3.69567 9.75495 4.01352 8.72145 4.27755 8.03388C4.62855 7.12167 5.05131 6.47388 5.73186 5.78865C6.41241 5.10342 7.06176 4.68144 7.97163 4.32576C8.65881 4.05744 9.68997 3.73842 11.5904 3.64794C13.6469 3.55044 14.2631 3.53094 19.4684 3.51963C24.6738 3.50832 25.2915 3.52782 27.3488 3.6183C29.2485 3.70098 30.2824 4.01571 30.9691 4.2813C31.8806 4.6323 32.5291 5.05389 33.2144 5.73561C33.8996 6.41733 34.322 7.06434 34.6777 7.97616C34.9464 8.66139 35.2654 9.69216 35.3551 11.5938C35.453 13.6503 35.4752 14.2669 35.4846 19.4718C35.4939 24.6767 35.4756 25.2949 35.3855 27.3498C35.3024 29.251 34.9873 30.2838 34.7225 30.9725C34.3715 31.8832 33.9484 32.5325 33.2674 33.2173C32.5865 33.9022 31.9379 34.3242 31.0276 34.6798C30.3412 34.9478 29.3089 35.2676 27.41 35.3581C25.3535 35.4548 24.7373 35.4751 19.5301 35.4864C14.3228 35.4977 13.7085 35.4766 11.6521 35.3877M27.5485 9.07791C27.5492 9.54075 27.6872 9.99296 27.945 10.3774C28.2028 10.7618 28.5688 11.0611 28.9968 11.2374C29.4247 11.4138 29.8953 11.4593 30.3491 11.3682C30.8029 11.2771 31.2194 11.0535 31.5461 10.7256C31.8728 10.3977 32.0949 9.98033 32.1843 9.52621C32.2738 9.07209 32.2266 8.60165 32.0486 8.17438C31.8707 7.74711 31.57 7.38221 31.1847 7.12582C30.7993 6.86944 30.3466 6.73308 29.8838 6.73401C29.2633 6.73525 28.6687 6.98287 28.2308 7.42241C27.7929 7.86195 27.5474 8.45744 27.5485 9.07791ZM9.48756 19.5194C9.49848 25.0496 13.9897 29.5225 19.5188 29.512C25.0478 29.5014 29.5238 25.0106 29.5133 19.4804C29.5027 13.9502 25.0103 9.4761 19.4805 9.48702C13.9507 9.49794 9.47703 13.99 9.48756 19.5194ZM12.9999 19.5124C12.9974 18.2268 13.3761 16.9693 14.0882 15.8989C14.8004 14.8286 15.8139 13.9934 17.0006 13.4991C18.1874 13.0048 19.4941 12.8735 20.7555 13.1218C22.0169 13.3701 23.1763 13.9869 24.0872 14.8941C24.998 15.8014 25.6194 16.9584 25.8727 18.2188C26.126 19.4792 25.9999 20.7864 25.5103 21.9751C25.0206 23.1638 24.1895 24.1806 23.122 24.897C22.0545 25.6134 20.7985 25.9971 19.5129 25.9996C18.6593 26.0014 17.8136 25.835 17.0243 25.51C16.235 25.1849 15.5174 24.7075 14.9126 24.1051C14.3078 23.5027 13.8276 22.787 13.4994 21.999C13.1712 21.211 13.0015 20.366 12.9999 19.5124Z" fill="white"/>
</svg>
