<svg width="16" height="17" viewBox="0 0 16 17" fill="none" xmlns="http://www.w3.org/2000/svg">
<g clip-path="url(#clip0_0_3231)">
<path d="M8 0.0742188C6.89583 0.0742188 5.85938 0.282552 4.89062 0.699219C3.92188 1.1263 3.07552 1.70182 2.35156 2.42578C1.6276 3.14974 1.05208 3.99609 0.625 4.96484C0.208333 5.93359 0 6.97005 0 8.07422C0 9.17839 0.208333 10.2148 0.625 11.1836C1.05208 12.1523 1.6276 12.9987 2.35156 13.7227C3.07552 14.4466 3.92188 15.0221 4.89062 15.4492C5.85938 15.8659 6.89583 16.0742 8 16.0742C9.10417 16.0742 10.1406 15.8659 11.1094 15.4492C12.0781 15.0221 12.9245 14.4466 13.6484 13.7227C14.3724 12.9987 14.9479 12.1523 15.375 11.1836C15.7917 10.2148 16 9.17839 16 8.07422C16 6.97005 15.7917 5.93359 15.375 4.96484C14.9479 3.99609 14.3724 3.14974 13.6484 2.42578C12.9245 1.70182 12.0781 1.1263 11.1094 0.699219C10.1406 0.282552 9.10417 0.0742188 8 0.0742188ZM12.4688 5.96484L7.35938 11.043C7.21354 11.1888 7.03385 11.2669 6.82031 11.2773C6.60677 11.2878 6.41667 11.2148 6.25 11.0586L3.54688 8.58984C3.39062 8.44401 3.30729 8.26172 3.29688 8.04297C3.28646 7.82422 3.34896 7.63672 3.48438 7.48047C3.64062 7.3138 3.82812 7.22786 4.04688 7.22266C4.26562 7.21745 4.45312 7.28776 4.60938 7.43359L6.75 9.40234L11.3281 4.82422C11.4844 4.66797 11.6745 4.58984 11.8984 4.58984C12.1224 4.58984 12.3125 4.66797 12.4688 4.82422C12.6354 4.99089 12.7188 5.18359 12.7188 5.40234C12.7188 5.62109 12.6354 5.80859 12.4688 5.96484Z" fill="#DCB90C"/>
</g>
<defs>
<clipPath id="clip0_0_3231">
<rect width="16" height="16" fill="white" transform="matrix(1 0 0 -1 0 16.0742)"/>
</clipPath>
</defs>
</svg>
