<svg width="154" height="64" viewBox="0 0 154 64" fill="none" xmlns="http://www.w3.org/2000/svg">
<path d="M52.6516 44V12.2255H58.5525V44H52.6516ZM64.8773 44V12.2255H70.7783V39.0069H87.3918V44H64.8773ZM89.7809 44V12.2255H95.6818V44H89.7809ZM102.007 44V12.2255H106.864L120.754 35.4209H118.212L131.875 12.2255H136.732L136.777 44H131.194L131.148 20.9862H132.328L120.708 40.3686H118.075L106.273 20.9862H107.635V44H102.007ZM143.09 44V12.2255H148.991V44H143.09Z" fill="white"/>
<rect x="2.95312" y="5.91992" width="45.3921" height="44.4053" fill="#DCB90C"/>
<path d="M42.437 11.0332H34.0494L20.2344 27.8085L34.0494 44.0905H42.437L29.1154 27.3151L42.437 11.0332Z" fill="#141414"/>
<path d="M14.8813 10.7148L26.6481 10.7148L14.8914 24.8478L14.8813 10.7148Z" fill="#141414"/>
<path d="M14.6391 44.748L26.4059 44.748L14.6492 30.6151L14.6391 44.748Z" fill="#141414"/>
<path d="M4.68307 60.3398V53.8809H5.67546V60.3398H4.68307ZM5.18767 52.8044C4.99424 52.8044 4.82744 52.7385 4.68727 52.6068C4.54991 52.475 4.48123 52.3166 4.48123 52.1316C4.48123 51.9466 4.54991 51.7882 4.68727 51.6564C4.82744 51.5247 4.99424 51.4588 5.18767 51.4588C5.38111 51.4588 5.5465 51.5247 5.68387 51.6564C5.82404 51.7882 5.89412 51.9466 5.89412 52.1316C5.89412 52.3166 5.82404 52.475 5.68387 52.6068C5.5465 52.7385 5.38111 52.8044 5.18767 52.8044ZM11.8159 56.6562V57.5813H8.25V56.6562H11.8159ZM8.48548 53.8809V60.3398H7.49309V53.8809H8.48548ZM12.5728 53.8809V60.3398H11.5804V53.8809H12.5728ZM13.5063 54.806V53.8809H18.7542V54.806H16.6349V60.3398H15.6425V54.806H13.5063ZM22.5745 60.4744C21.9521 60.4744 21.4153 60.337 20.964 60.0623C20.5154 59.7848 20.1692 59.3979 19.9253 58.9017C19.6842 58.4027 19.5637 57.8224 19.5637 57.1608C19.5637 56.4992 19.6842 55.9161 19.9253 55.4115C20.1692 54.9041 20.5084 54.5088 20.9429 54.2257C21.3803 53.9398 21.8905 53.7968 22.4736 53.7968C22.81 53.7968 23.1422 53.8529 23.4702 53.965C23.7982 54.0771 24.0967 54.2593 24.3658 54.5116C24.635 54.7611 24.8494 55.0919 25.0092 55.504C25.169 55.9161 25.2489 56.4235 25.2489 57.0263V57.4468H20.2701V56.5889H24.2397C24.2397 56.2245 24.1668 55.8993 24.021 55.6134C23.8781 55.3274 23.6734 55.1018 23.4071 54.9364C23.1436 54.771 22.8324 54.6883 22.4736 54.6883C22.0783 54.6883 21.7363 54.7864 21.4475 54.9826C21.1616 55.176 20.9415 55.4283 20.7873 55.7395C20.6332 56.0507 20.5561 56.3843 20.5561 56.7403V57.3122C20.5561 57.8 20.6402 58.2135 20.8084 58.5527C20.9794 58.8891 21.2163 59.1456 21.519 59.3222C21.8218 59.496 22.1736 59.5829 22.5745 59.5829C22.8352 59.5829 23.0707 59.5465 23.2809 59.4736C23.494 59.3979 23.6776 59.2858 23.8318 59.1372C23.986 58.9858 24.1051 58.798 24.1892 58.5737L25.148 58.8428C25.0471 59.168 24.8775 59.454 24.6392 59.7007C24.4009 59.9446 24.1065 60.1352 23.7561 60.2726C23.4057 60.4071 23.0118 60.4744 22.5745 60.4744ZM26.7585 62.762V53.8809H27.7173V54.9069H27.835C27.9079 54.7948 28.0088 54.6518 28.1378 54.478C28.2695 54.3014 28.4573 54.1444 28.7012 54.007C28.9479 53.8669 29.2815 53.7968 29.702 53.7968C30.2459 53.7968 30.7253 53.9328 31.1402 54.2047C31.5551 54.4766 31.8789 54.8621 32.1115 55.3611C32.3442 55.8601 32.4606 56.4488 32.4606 57.1272C32.4606 57.8112 32.3442 58.4041 32.1115 58.9059C31.8789 59.4049 31.5565 59.7918 31.1444 60.0665C30.7323 60.3384 30.2571 60.4744 29.7189 60.4744C29.304 60.4744 28.9718 60.4057 28.7223 60.2684C28.4728 60.1282 28.2807 59.9698 28.1462 59.7932C28.0116 59.6138 27.9079 59.4652 27.835 59.3475H27.7509V62.762H26.7585ZM27.7341 57.1104C27.7341 57.5982 27.8056 58.0285 27.9485 58.4013C28.0915 58.7714 28.3004 59.0615 28.5751 59.2718C28.8498 59.4792 29.1862 59.5829 29.5843 59.5829C29.9992 59.5829 30.3454 59.4736 30.6229 59.2549C30.9033 59.0335 31.1135 58.7363 31.2537 58.3635C31.3967 57.9878 31.4682 57.5701 31.4682 57.1104C31.4682 56.6562 31.3981 56.2469 31.2579 55.8825C31.1205 55.5153 30.9117 55.2251 30.6314 55.0121C30.3538 54.7962 30.0048 54.6883 29.5843 54.6883C29.1806 54.6883 28.8414 54.7906 28.5667 54.9952C28.2919 55.1971 28.0845 55.4802 27.9443 55.8446C27.8042 56.2063 27.7341 56.6282 27.7341 57.1104ZM38.2972 56.6562V57.5813H34.7313V56.6562H38.2972ZM34.9668 53.8809V60.3398H33.9744V53.8809H34.9668ZM39.0541 53.8809V60.3398H38.0617V53.8809H39.0541ZM43.5745 60.4744C42.9521 60.4744 42.4153 60.337 41.964 60.0623C41.5154 59.7848 41.1692 59.3979 40.9253 58.9017C40.6842 58.4027 40.5637 57.8224 40.5637 57.1608C40.5637 56.4992 40.6842 55.9161 40.9253 55.4115C41.1692 54.9041 41.5084 54.5088 41.9429 54.2257C42.3803 53.9398 42.8905 53.7968 43.4736 53.7968C43.81 53.7968 44.1422 53.8529 44.4702 53.965C44.7982 54.0771 45.0967 54.2593 45.3658 54.5116C45.635 54.7611 45.8494 55.0919 46.0092 55.504C46.169 55.9161 46.2489 56.4235 46.2489 57.0263V57.4468H41.2701V56.5889H45.2397C45.2397 56.2245 45.1668 55.8993 45.021 55.6134C44.8781 55.3274 44.6734 55.1018 44.4071 54.9364C44.1436 54.771 43.8324 54.6883 43.4736 54.6883C43.0783 54.6883 42.7363 54.7864 42.4475 54.9826C42.1616 55.176 41.9415 55.4283 41.7873 55.7395C41.6332 56.0507 41.5561 56.3843 41.5561 56.7403V57.3122C41.5561 57.8 41.6402 58.2135 41.8084 58.5527C41.9794 58.8891 42.2163 59.1456 42.519 59.3222C42.8218 59.496 43.1736 59.5829 43.5745 59.5829C43.8352 59.5829 44.0707 59.5465 44.2809 59.4736C44.494 59.3979 44.6776 59.2858 44.8318 59.1372C44.986 58.9858 45.1051 58.798 45.1892 58.5737L46.148 58.8428C46.0471 59.168 45.8775 59.454 45.6392 59.7007C45.4009 59.9446 45.1065 60.1352 44.7561 60.2726C44.4057 60.4071 44.0118 60.4744 43.5745 60.4744ZM47.1572 54.806V53.8809H52.4051V54.806H50.2857V60.3398H49.2934V54.806H47.1572ZM60.7153 58.9942L62.9692 53.8809H63.9111L61.119 60.3398H60.3116L57.5699 53.8809H58.495L60.7153 58.9942ZM58.1755 53.8809V60.3398H57.1831V53.8809H58.1755ZM63.2552 60.3398V53.8809H64.2475V60.3398H63.2552ZM67.9648 60.4912C67.5555 60.4912 67.1841 60.4141 66.8505 60.2599C66.5169 60.103 66.252 59.8773 66.0557 59.5829C65.8595 59.2858 65.7614 58.9269 65.7614 58.5064C65.7614 58.1364 65.8343 57.8364 65.98 57.6066C66.1258 57.3739 66.3206 57.1917 66.5645 57.0599C66.8084 56.9281 67.0775 56.83 67.3719 56.7656C67.6691 56.6983 67.9676 56.645 68.2676 56.6058C68.66 56.5553 68.9782 56.5175 69.2221 56.4922C69.4688 56.4642 69.6482 56.4179 69.7604 56.3535C69.8753 56.289 69.9328 56.1768 69.9328 56.0171V55.9834C69.9328 55.5685 69.8192 55.2461 69.5922 55.0163C69.3679 54.7864 69.0273 54.6714 68.5703 54.6714C68.0966 54.6714 67.7251 54.7752 67.456 54.9826C67.1869 55.1901 66.9976 55.4115 66.8883 55.647L65.9464 55.3106C66.1146 54.9181 66.3389 54.6126 66.6192 54.3939C66.9023 54.1724 67.2107 54.0183 67.5443 53.9314C67.8807 53.8416 68.2115 53.7968 68.5367 53.7968C68.7441 53.7968 68.9824 53.822 69.2516 53.8725C69.5235 53.9201 69.7856 54.0197 70.0379 54.171C70.293 54.3224 70.5047 54.5509 70.6729 54.8565C70.8411 55.162 70.9252 55.5713 70.9252 56.0843V60.3398H69.9328V59.4652H69.8823C69.815 59.6054 69.7029 59.7553 69.5459 59.9151C69.3889 60.0749 69.1801 60.2109 68.9194 60.323C68.6586 60.4352 68.3405 60.4912 67.9648 60.4912ZM68.1162 59.5998C68.5087 59.5998 68.8395 59.5227 69.1086 59.3685C69.3805 59.2143 69.5852 59.0153 69.7225 58.7714C69.8627 58.5275 69.9328 58.271 69.9328 58.0018V57.0935C69.8907 57.144 69.7982 57.1903 69.6552 57.2323C69.5151 57.2716 69.3525 57.3066 69.1675 57.3374C68.9852 57.3655 68.8072 57.3907 68.6334 57.4131C68.4624 57.4328 68.3236 57.4496 68.2171 57.4636C67.9592 57.4972 67.7181 57.5519 67.4938 57.6276C67.2724 57.7005 67.093 57.8112 66.9556 57.9598C66.821 58.1056 66.7538 58.3046 66.7538 58.5569C66.7538 58.9017 66.8813 59.1624 67.1364 59.339C67.3943 59.5129 67.7209 59.5998 68.1162 59.5998ZM76.7229 53.8809V54.806H73.7289V60.3398H72.7365V53.8809H76.7229ZM79.7368 60.4912C79.3275 60.4912 78.9561 60.4141 78.6225 60.2599C78.2889 60.103 78.024 59.8773 77.8277 59.5829C77.6315 59.2858 77.5334 58.9269 77.5334 58.5064C77.5334 58.1364 77.6063 57.8364 77.7521 57.6066C77.8978 57.3739 78.0927 57.1917 78.3366 57.0599C78.5804 56.9281 78.8496 56.83 79.1439 56.7656C79.4411 56.6983 79.7396 56.645 80.0396 56.6058C80.4321 56.5553 80.7503 56.5175 80.9941 56.4922C81.2408 56.4642 81.4203 56.4179 81.5324 56.3535C81.6473 56.289 81.7048 56.1768 81.7048 56.0171V55.9834C81.7048 55.5685 81.5913 55.2461 81.3642 55.0163C81.1399 54.7864 80.7993 54.6714 80.3424 54.6714C79.8686 54.6714 79.4971 54.7752 79.228 54.9826C78.9589 55.1901 78.7697 55.4115 78.6603 55.647L77.7184 55.3106C77.8866 54.9181 78.1109 54.6126 78.3912 54.3939C78.6744 54.1724 78.9827 54.0183 79.3163 53.9314C79.6527 53.8416 79.9835 53.7968 80.3087 53.7968C80.5162 53.7968 80.7545 53.822 81.0236 53.8725C81.2955 53.9201 81.5576 54.0197 81.8099 54.171C82.065 54.3224 82.2767 54.5509 82.4449 54.8565C82.6131 55.162 82.6972 55.5713 82.6972 56.0843V60.3398H81.7048V59.4652H81.6543C81.5871 59.6054 81.4749 59.7553 81.3179 59.9151C81.1609 60.0749 80.9521 60.2109 80.6914 60.323C80.4307 60.4352 80.1125 60.4912 79.7368 60.4912ZM79.8882 59.5998C80.2807 59.5998 80.6115 59.5227 80.8806 59.3685C81.1525 59.2143 81.3572 59.0153 81.4945 58.7714C81.6347 58.5275 81.7048 58.271 81.7048 58.0018V57.0935C81.6627 57.144 81.5702 57.1903 81.4273 57.2323C81.2871 57.2716 81.1245 57.3066 80.9395 57.3374C80.7573 57.3655 80.5792 57.3907 80.4054 57.4131C80.2344 57.4328 80.0957 57.4496 79.9891 57.4636C79.7312 57.4972 79.4901 57.5519 79.2659 57.6276C79.0444 57.7005 78.865 57.8112 78.7276 57.9598C78.5931 58.1056 78.5258 58.3046 78.5258 58.5569C78.5258 58.9017 78.6533 59.1624 78.9084 59.339C79.1664 59.5129 79.4929 59.5998 79.8882 59.5998ZM84.1048 58.6915H85.1645C85.1869 58.983 85.3187 59.2045 85.5598 59.3559C85.8037 59.5072 86.1204 59.5829 86.5101 59.5829C86.9082 59.5829 87.2488 59.5016 87.5319 59.339C87.8151 59.1736 87.9566 58.9073 87.9566 58.5401C87.9566 58.3242 87.9034 58.1364 87.7969 57.9766C87.6903 57.814 87.5403 57.6879 87.3469 57.5982C87.1535 57.5084 86.925 57.4636 86.6615 57.4636H85.5514V56.5721H86.6615C87.0568 56.5721 87.3483 56.4824 87.5361 56.303C87.7268 56.1236 87.8221 55.8993 87.8221 55.6302C87.8221 55.3414 87.7198 55.1102 87.5151 54.9364C87.3105 54.7597 87.0203 54.6714 86.6447 54.6714C86.2662 54.6714 85.9508 54.7569 85.6985 54.9279C85.4462 55.0962 85.3131 55.3134 85.2991 55.5797H84.2562C84.2674 55.2321 84.3739 54.9251 84.5758 54.6588C84.7776 54.3897 85.0524 54.1795 85.4 54.0281C85.7476 53.8739 86.1457 53.7968 86.5942 53.7968C87.0484 53.7968 87.4422 53.8767 87.7758 54.0365C88.1122 54.1935 88.3715 54.4079 88.5538 54.6799C88.7388 54.949 88.8313 55.2545 88.8313 55.5966C88.8313 55.961 88.729 56.2553 88.5243 56.4796C88.3197 56.7039 88.0632 56.8637 87.7548 56.959V57.0263C87.9987 57.0431 88.2104 57.1216 88.3898 57.2617C88.572 57.3991 88.7136 57.5799 88.8145 57.8042C88.9154 58.0257 88.9659 58.271 88.9659 58.5401C88.9659 58.9326 88.8607 59.2746 88.6505 59.5661C88.4402 59.8549 88.1515 60.0791 87.7842 60.2389C87.417 60.3959 86.9979 60.4744 86.5269 60.4744C86.07 60.4744 85.6607 60.4001 85.2991 60.2515C84.9374 60.1002 84.6501 59.8913 84.437 59.625C84.2268 59.3559 84.116 59.0447 84.1048 58.6915ZM91.3522 58.8765L94.464 53.8809H95.6077V60.3398H94.6153V55.3442L91.5204 60.3398H90.3598V53.8809H91.3522V58.8765ZM101.748 56.6562V57.5813H98.1823V56.6562H101.748ZM98.4177 53.8809V60.3398H97.4254V53.8809H98.4177ZM102.505 53.8809V60.3398H101.513V53.8809H102.505ZM107.648 60.3398V53.8809H108.64V56.6899H109.296L111.617 53.8809H112.896L110.289 56.9926L112.929 60.3398H111.651L109.532 57.615H108.64V60.3398H107.648ZM115 58.8765L118.112 53.8809H119.256V60.3398H118.263V55.3442L115.169 60.3398H114.008V53.8809H115V58.8765ZM120.502 60.3398V59.4147H120.737C120.931 59.4147 121.092 59.3769 121.221 59.3012C121.35 59.2227 121.453 59.0867 121.532 58.8933C121.613 58.6971 121.675 58.4251 121.717 58.0775C121.762 57.7271 121.794 57.2814 121.814 56.7403L121.931 53.8809H126.237V60.3398H125.245V54.806H122.873L122.772 57.1104C122.75 57.6402 122.702 58.107 122.629 58.5106C122.559 58.9115 122.451 59.2479 122.306 59.5199C122.163 59.7918 121.972 59.9964 121.734 60.1338C121.495 60.2712 121.197 60.3398 120.838 60.3398H120.502ZM129.05 58.8765L132.162 53.8809H133.306V60.3398H132.314V55.3442L129.219 60.3398H128.058V53.8809H129.05V58.8765ZM138.656 58.9942L140.91 53.8809H141.852L139.06 60.3398H138.252L135.51 53.8809H136.436L138.656 58.9942ZM136.116 53.8809V60.3398H135.124V53.8809H136.116ZM141.196 60.3398V53.8809H142.188V60.3398H141.196ZM144.005 60.3398V53.8809H144.997V60.3398H144.005ZM144.509 52.8044C144.316 52.8044 144.149 52.7385 144.009 52.6068C143.871 52.475 143.803 52.3166 143.803 52.1316C143.803 51.9466 143.871 51.7882 144.009 51.6564C144.149 51.5247 144.316 51.4588 144.509 51.4588C144.703 51.4588 144.868 51.5247 145.005 51.6564C145.146 51.7882 145.216 51.9466 145.216 52.1316C145.216 52.3166 145.146 52.475 145.005 52.6068C144.868 52.7385 144.703 52.8044 144.509 52.8044ZM146.815 60.3398V53.8809H149.455C150.151 53.8809 150.703 54.0379 151.112 54.3519C151.522 54.6658 151.726 55.0807 151.726 55.5966C151.726 55.989 151.61 56.2932 151.377 56.509C151.144 56.7221 150.846 56.8665 150.481 56.9422C150.72 56.9758 150.951 57.0599 151.175 57.1945C151.402 57.329 151.59 57.5141 151.739 57.7495C151.887 57.9822 151.962 58.2682 151.962 58.6074C151.962 58.9382 151.878 59.2339 151.709 59.4946C151.541 59.7553 151.3 59.9614 150.986 60.1128C150.672 60.2642 150.296 60.3398 149.859 60.3398H146.815ZM147.757 59.4316H149.859C150.201 59.4316 150.469 59.3503 150.662 59.1877C150.856 59.0251 150.952 58.8036 150.952 58.5233C150.952 58.1897 150.856 57.9275 150.662 57.7369C150.469 57.5435 150.201 57.4468 149.859 57.4468H147.757V59.4316ZM147.757 56.5889H149.455C149.722 56.5889 149.95 56.5525 150.141 56.4796C150.331 56.4039 150.477 56.2974 150.578 56.16C150.682 56.0199 150.734 55.8545 150.734 55.6638C150.734 55.3919 150.62 55.1789 150.393 55.0247C150.166 54.8677 149.854 54.7892 149.455 54.7892H147.757V56.5889Z" fill="white"/>
</svg>
