<svg width="126" height="53" viewBox="0 0 126 53" fill="none" xmlns="http://www.w3.org/2000/svg">
<path d="M43.126 36V9.99231H47.956V36H43.126ZM53.1328 36V9.99231H57.9628V31.9131H71.5611V36H53.1328ZM73.5167 36V9.99231H78.3467V36H73.5167ZM83.5235 36V9.99231H87.499L98.8681 28.9779H96.7874L107.971 9.99231H111.946L111.983 36H107.413L107.376 17.163H108.342L98.8309 33.0277H96.676L87.016 17.163H88.1306V36H83.5235ZM117.151 36V9.99231H121.981V36H117.151Z" fill="white"/>
<rect x="2.42188" y="4.8457" width="37.1538" height="36.3462" fill="#DCB90C"/>
<path d="M34.7356 9.03076H27.8702L16.5625 22.7615L27.8702 36.0885H34.7356L23.8317 22.3577L34.7356 9.03076Z" fill="#141414"/>
<path d="M12.1803 8.76974L21.8116 8.76974L12.1886 20.3377L12.1803 8.76974Z" fill="#141414"/>
<path d="M11.985 36.6263L21.6163 36.6263L11.9933 25.0583L11.985 36.6263Z" fill="#141414"/>
<path d="M3.71715 50.3848V45.0981H4.52943V50.3848H3.71715ZM4.13018 44.2169C3.97185 44.2169 3.83532 44.163 3.72059 44.0552C3.60816 43.9473 3.55194 43.8177 3.55194 43.6662C3.55194 43.5148 3.60816 43.3851 3.72059 43.2773C3.83532 43.1695 3.97185 43.1155 4.13018 43.1155C4.2885 43.1155 4.42388 43.1695 4.53632 43.2773C4.65105 43.3851 4.70841 43.5148 4.70841 43.6662C4.70841 43.8177 4.65105 43.9473 4.53632 44.0552C4.42388 44.163 4.2885 44.2169 4.13018 44.2169ZM9.55542 47.3697V48.1269H6.63672V47.3697H9.55542ZM6.82946 45.0981V50.3848H6.01718V45.0981H6.82946ZM10.175 45.0981V50.3848H9.36268V45.0981H10.175ZM10.9391 45.8553V45.0981H15.2345V45.8553H13.4998V50.3848H12.6875V45.8553H10.9391ZM18.3615 50.4949C17.8521 50.4949 17.4126 50.3825 17.0432 50.1576C16.6761 49.9304 16.3927 49.6138 16.1931 49.2076C15.9957 48.7992 15.8971 48.3242 15.8971 47.7827C15.8971 47.2412 15.9957 46.7639 16.1931 46.3509C16.3927 45.9356 16.6703 45.612 17.026 45.3803C17.384 45.1462 17.8016 45.0292 18.2788 45.0292C18.5542 45.0292 18.8261 45.0751 19.0946 45.1669C19.363 45.2587 19.6074 45.4078 19.8277 45.6143C20.048 45.8186 20.2235 46.0893 20.3543 46.4266C20.4851 46.7639 20.5505 47.1792 20.5505 47.6726V48.0168H16.4753V47.3146H19.7244C19.7244 47.0163 19.6648 46.7502 19.5455 46.5161C19.4284 46.2821 19.2609 46.0973 19.0429 45.962C18.8273 45.8266 18.5726 45.7589 18.2788 45.7589C17.9553 45.7589 17.6754 45.8392 17.439 45.9998C17.205 46.1581 17.0249 46.3647 16.8987 46.6194C16.7725 46.8741 16.7094 47.1471 16.7094 47.4385V47.9066C16.7094 48.3059 16.7782 48.6443 16.9159 48.922C17.0558 49.1973 17.2497 49.4073 17.4975 49.5518C17.7454 49.6941 18.0333 49.7652 18.3615 49.7652C18.5748 49.7652 18.7676 49.7354 18.9397 49.6757C19.1141 49.6138 19.2644 49.522 19.3906 49.4004C19.5168 49.2765 19.6143 49.1227 19.6831 48.9392L20.4679 49.1595C20.3853 49.4256 20.2464 49.6597 20.0514 49.8616C19.8564 50.0612 19.6154 50.2173 19.3286 50.3297C19.0418 50.4398 18.7194 50.4949 18.3615 50.4949ZM21.7861 52.3673V45.0981H22.5709V45.9379H22.6672C22.7269 45.8461 22.8095 45.7291 22.915 45.5868C23.0229 45.4422 23.1766 45.3137 23.3763 45.2013C23.5782 45.0866 23.8512 45.0292 24.1954 45.0292C24.6406 45.0292 25.0329 45.1405 25.3725 45.3631C25.7121 45.5857 25.9772 45.9012 26.1676 46.3096C26.3581 46.718 26.4533 47.1999 26.4533 47.7552C26.4533 48.3151 26.3581 48.8004 26.1676 49.2111C25.9772 49.6195 25.7133 49.9362 25.376 50.161C25.0387 50.3836 24.6497 50.4949 24.2092 50.4949C23.8696 50.4949 23.5977 50.4387 23.3935 50.3263C23.1892 50.2115 23.0321 50.0819 22.9219 49.9373C22.8118 49.7905 22.7269 49.6689 22.6672 49.5725H22.5984V52.3673H21.7861ZM22.5846 47.7414C22.5846 48.1407 22.6431 48.4929 22.7602 48.7981C22.8772 49.1009 23.0481 49.3384 23.273 49.5105C23.4979 49.6803 23.7732 49.7652 24.099 49.7652C24.4386 49.7652 24.722 49.6757 24.9492 49.4968C25.1786 49.3155 25.3507 49.0723 25.4655 48.7671C25.5825 48.4596 25.641 48.1177 25.641 47.7414C25.641 47.3697 25.5836 47.0347 25.4689 46.7364C25.3565 46.4358 25.1855 46.1983 24.9561 46.0239C24.7289 45.8472 24.4432 45.7589 24.099 45.7589C23.7686 45.7589 23.491 45.8426 23.2661 46.0101C23.0412 46.1754 22.8714 46.4071 22.7567 46.7054C22.642 47.0014 22.5846 47.3467 22.5846 47.7414ZM31.2306 47.3697V48.1269H28.3119V47.3697H31.2306ZM28.5046 45.0981V50.3848H27.6924V45.0981H28.5046ZM31.8501 45.0981V50.3848H31.0379V45.0981H31.8501ZM35.5502 50.4949C35.0408 50.4949 34.6013 50.3825 34.2319 50.1576C33.8648 49.9304 33.5814 49.6138 33.3818 49.2076C33.1844 48.7992 33.0858 48.3242 33.0858 47.7827C33.0858 47.2412 33.1844 46.7639 33.3818 46.3509C33.5814 45.9356 33.859 45.612 34.2147 45.3803C34.5727 45.1462 34.9903 45.0292 35.4675 45.0292C35.7429 45.0292 36.0148 45.0751 36.2833 45.1669C36.5517 45.2587 36.7961 45.4078 37.0164 45.6143C37.2367 45.8186 37.4122 46.0893 37.543 46.4266C37.6738 46.7639 37.7392 47.1792 37.7392 47.6726V48.0168H33.664V47.3146H36.9131C36.9131 47.0163 36.8535 46.7502 36.7342 46.5161C36.6171 46.2821 36.4496 46.0973 36.2316 45.962C36.0159 45.8266 35.7613 45.7589 35.4675 45.7589C35.144 45.7589 34.8641 45.8392 34.6277 45.9998C34.3937 46.1581 34.2136 46.3647 34.0874 46.6194C33.9612 46.8741 33.8981 47.1471 33.8981 47.4385V47.9066C33.8981 48.3059 33.9669 48.6443 34.1046 48.922C34.2445 49.1973 34.4384 49.4073 34.6862 49.5518C34.9341 49.6941 35.222 49.7652 35.5502 49.7652C35.7635 49.7652 35.9563 49.7354 36.1284 49.6757C36.3028 49.6138 36.4531 49.522 36.5793 49.4004C36.7055 49.2765 36.803 49.1227 36.8718 48.9392L37.6566 49.1595C37.574 49.4256 37.4351 49.6597 37.2401 49.8616C37.0451 50.0612 36.8041 50.2173 36.5173 50.3297C36.2305 50.4398 35.9081 50.4949 35.5502 50.4949ZM38.4826 45.8553V45.0981H42.7781V45.8553H41.0434V50.3848H40.2311V45.8553H38.4826ZM49.5801 49.2834L51.4249 45.0981H52.1959L49.9105 50.3848H49.2497L47.0056 45.0981H47.7628L49.5801 49.2834ZM47.5012 45.0981V50.3848H46.6889V45.0981H47.5012ZM51.659 50.3848V45.0981H52.4712V50.3848H51.659ZM55.5139 50.5087C55.1789 50.5087 54.8748 50.4456 54.6018 50.3194C54.3287 50.1909 54.1119 50.0062 53.9513 49.7652C53.7906 49.522 53.7103 49.2283 53.7103 48.8841C53.7103 48.5812 53.77 48.3357 53.8893 48.1475C54.0086 47.9571 54.1681 47.808 54.3677 47.7001C54.5673 47.5923 54.7876 47.512 55.0286 47.4592C55.2718 47.4041 55.5162 47.3605 55.7617 47.3284C56.0829 47.2871 56.3434 47.2561 56.543 47.2355C56.7449 47.2125 56.8918 47.1746 56.9835 47.1219C57.0776 47.0691 57.1247 46.9773 57.1247 46.8465V46.819C57.1247 46.4794 57.0317 46.2155 56.8459 46.0274C56.6623 45.8392 56.3835 45.7451 56.0095 45.7451C55.6217 45.7451 55.3177 45.83 55.0974 45.9998C54.8771 46.1696 54.7222 46.3509 54.6327 46.5436L53.8618 46.2683C53.9994 45.947 54.183 45.6969 54.4125 45.518C54.6442 45.3367 54.8966 45.2105 55.1697 45.1394C55.445 45.0659 55.7158 45.0292 55.982 45.0292C56.1518 45.0292 56.3468 45.0499 56.5671 45.0912C56.7896 45.1302 57.0042 45.2116 57.2107 45.3355C57.4195 45.4594 57.5928 45.6465 57.7304 45.8966C57.8681 46.1467 57.9369 46.4817 57.9369 46.9016V50.3848H57.1247V49.6689H57.0834C57.0283 49.7836 56.9365 49.9063 56.808 50.0371C56.6795 50.1679 56.5086 50.2792 56.2952 50.371C56.0818 50.4628 55.8213 50.5087 55.5139 50.5087ZM55.6378 49.779C55.959 49.779 56.2298 49.7159 56.45 49.5897C56.6726 49.4635 56.8401 49.3006 56.9526 49.1009C57.0673 48.9013 57.1247 48.6914 57.1247 48.4711V47.7276C57.0902 47.7689 57.0145 47.8068 56.8975 47.8412C56.7828 47.8733 56.6497 47.902 56.4982 47.9273C56.3491 47.9502 56.2034 47.9709 56.0611 47.9892C55.9211 48.0053 55.8076 48.0191 55.7204 48.0305C55.5093 48.0581 55.3119 48.1028 55.1284 48.1648C54.9471 48.2244 54.8002 48.3151 54.6878 48.4367C54.5777 48.556 54.5226 48.7189 54.5226 48.9254C54.5226 49.2076 54.627 49.421 54.8358 49.5656C55.0469 49.7079 55.3142 49.779 55.6378 49.779ZM62.6824 45.0981V45.8553H60.2318V50.3848H59.4195V45.0981H62.6824ZM65.1494 50.5087C64.8144 50.5087 64.5103 50.4456 64.2373 50.3194C63.9642 50.1909 63.7474 50.0062 63.5868 49.7652C63.4261 49.522 63.3458 49.2283 63.3458 48.8841C63.3458 48.5812 63.4055 48.3357 63.5248 48.1475C63.6441 47.9571 63.8036 47.808 64.0032 47.7001C64.2029 47.5923 64.4231 47.512 64.6641 47.4592C64.9073 47.4041 65.1517 47.3605 65.3972 47.3284C65.7184 47.2871 65.9789 47.2561 66.1785 47.2355C66.3804 47.2125 66.5273 47.1746 66.6191 47.1219C66.7131 47.0691 66.7602 46.9773 66.7602 46.8465V46.819C66.7602 46.4794 66.6672 46.2155 66.4814 46.0274C66.2978 45.8392 66.019 45.7451 65.645 45.7451C65.2572 45.7451 64.9532 45.83 64.7329 45.9998C64.5126 46.1696 64.3577 46.3509 64.2683 46.5436L63.4973 46.2683C63.635 45.947 63.8185 45.6969 64.048 45.518C64.2797 45.3367 64.5321 45.2105 64.8052 45.1394C65.0805 45.0659 65.3513 45.0292 65.6175 45.0292C65.7873 45.0292 65.9823 45.0499 66.2026 45.0912C66.4252 45.1302 66.6397 45.2116 66.8462 45.3355C67.055 45.4594 67.2283 45.6465 67.3659 45.8966C67.5036 46.1467 67.5725 46.4817 67.5725 46.9016V50.3848H66.7602V49.6689H66.7189C66.6638 49.7836 66.572 49.9063 66.4435 50.0371C66.315 50.1679 66.1441 50.2792 65.9307 50.371C65.7173 50.4628 65.4569 50.5087 65.1494 50.5087ZM65.2733 49.779C65.5945 49.779 65.8653 49.7159 66.0856 49.5897C66.3081 49.4635 66.4756 49.3006 66.5881 49.1009C66.7028 48.9013 66.7602 48.6914 66.7602 48.4711V47.7276C66.7258 47.7689 66.65 47.8068 66.533 47.8412C66.4183 47.8733 66.2852 47.902 66.1338 47.9273C65.9846 47.9502 65.8389 47.9709 65.6966 47.9892C65.5567 48.0053 65.4431 48.0191 65.3559 48.0305C65.1448 48.0581 64.9475 48.1028 64.7639 48.1648C64.5826 48.2244 64.4358 48.3151 64.3233 48.4367C64.2132 48.556 64.1581 48.7189 64.1581 48.9254C64.1581 49.2076 64.2625 49.421 64.4713 49.5656C64.6824 49.7079 64.9497 49.779 65.2733 49.779ZM68.7246 49.0356H69.592C69.6103 49.2742 69.7182 49.4555 69.9155 49.5794C70.1151 49.7033 70.3744 49.7652 70.6934 49.7652C71.0192 49.7652 71.298 49.6987 71.5297 49.5656C71.7615 49.4302 71.8774 49.2122 71.8774 48.9116C71.8774 48.735 71.8338 48.5812 71.7466 48.4504C71.6594 48.3173 71.5366 48.2141 71.3783 48.1407C71.22 48.0672 71.033 48.0305 70.8173 48.0305H69.9086V47.3008H70.8173C71.1408 47.3008 71.3795 47.2274 71.5332 47.0806C71.6892 46.9337 71.7672 46.7502 71.7672 46.5299C71.7672 46.2935 71.6835 46.1042 71.516 45.962C71.3485 45.8174 71.111 45.7451 70.8035 45.7451C70.4937 45.7451 70.2356 45.8151 70.0291 45.9551C69.8226 46.0928 69.7136 46.2706 69.7021 46.4886H68.8485C68.8577 46.204 68.9449 45.9528 69.1101 45.7348C69.2753 45.5145 69.5002 45.3424 69.7847 45.2185C70.0692 45.0923 70.3951 45.0292 70.7622 45.0292C71.1339 45.0292 71.4563 45.0946 71.7294 45.2254C72.0047 45.3539 72.217 45.5294 72.3661 45.752C72.5176 45.9723 72.5933 46.2224 72.5933 46.5023C72.5933 46.8006 72.5095 47.0416 72.342 47.2251C72.1745 47.4087 71.9646 47.5395 71.7122 47.6175V47.6726C71.9118 47.6863 72.085 47.7506 72.2319 47.8653C72.381 47.9778 72.4969 48.1258 72.5795 48.3093C72.6621 48.4906 72.7034 48.6914 72.7034 48.9116C72.7034 49.2329 72.6174 49.5128 72.4453 49.7515C72.2732 49.9878 72.0369 50.1714 71.7363 50.3022C71.4357 50.4307 71.0926 50.4949 70.7071 50.4949C70.3331 50.4949 69.9981 50.4341 69.7021 50.3125C69.4061 50.1886 69.1709 50.0176 68.9965 49.7996C68.8244 49.5794 68.7338 49.3247 68.7246 49.0356ZM74.6567 49.187L77.2037 45.0981H78.1399V50.3848H77.3276V46.2958L74.7944 50.3848H73.8444V45.0981H74.6567V49.187ZM83.1658 47.3697V48.1269H80.2471V47.3697H83.1658ZM80.4399 45.0981V50.3848H79.6276V45.0981H80.4399ZM83.7854 45.0981V50.3848H82.9731V45.0981H83.7854ZM87.9948 50.3848V45.0981H88.8071V47.3972H89.344L91.2439 45.0981H92.2902L90.1563 47.645L92.3178 50.3848H91.2714L89.5367 48.1544H88.8071V50.3848H87.9948ZM94.0129 49.187L96.5599 45.0981H97.4961V50.3848H96.6838V46.2958L94.1506 50.3848H93.2006V45.0981H94.0129V49.187ZM98.5157 50.3848V49.6276H98.7085C98.8668 49.6276 98.9987 49.5966 99.1043 49.5346C99.2098 49.4704 99.2947 49.3591 99.359 49.2008C99.4255 49.0401 99.476 48.8176 99.5104 48.533C99.5472 48.2462 99.5735 47.8814 99.5896 47.4385L99.686 45.0981H103.21V50.3848H102.398V45.8553H100.457L100.374 47.7414C100.356 48.1751 100.317 48.5571 100.257 48.8876C100.2 49.2157 100.112 49.491 99.9923 49.7136C99.8753 49.9362 99.7192 50.1037 99.5242 50.2161C99.3292 50.3285 99.0848 50.3848 98.7911 50.3848H98.5157ZM105.513 49.187L108.06 45.0981H108.996V50.3848H108.184V46.2958L105.651 50.3848H104.701V45.0981H105.513V49.187ZM113.375 49.2834L115.22 45.0981H115.991L113.706 50.3848H113.045L110.801 45.0981H111.558L113.375 49.2834ZM111.296 45.0981V50.3848H110.484V45.0981H111.296ZM115.454 50.3848V45.0981H116.266V50.3848H115.454ZM117.753 50.3848V45.0981H118.565V50.3848H117.753ZM118.166 44.2169C118.008 44.2169 117.871 44.163 117.757 44.0552C117.644 43.9473 117.588 43.8177 117.588 43.6662C117.588 43.5148 117.644 43.3851 117.757 43.2773C117.871 43.1695 118.008 43.1155 118.166 43.1155C118.325 43.1155 118.46 43.1695 118.572 43.2773C118.687 43.3851 118.744 43.5148 118.744 43.6662C118.744 43.8177 118.687 43.9473 118.572 44.0552C118.46 44.163 118.325 44.2169 118.166 44.2169ZM120.053 50.3848V45.0981H122.215C122.784 45.0981 123.236 45.2265 123.571 45.4835C123.906 45.7405 124.073 46.0801 124.073 46.5023C124.073 46.8236 123.978 47.0725 123.788 47.2492C123.597 47.4236 123.353 47.5418 123.055 47.6037C123.25 47.6313 123.439 47.7001 123.622 47.8102C123.808 47.9204 123.962 48.0718 124.084 48.2646C124.205 48.455 124.266 48.6891 124.266 48.9667C124.266 49.2375 124.197 49.4796 124.06 49.6929C123.922 49.9063 123.725 50.075 123.468 50.1989C123.211 50.3228 122.903 50.3848 122.545 50.3848H120.053ZM120.824 49.6413H122.545C122.825 49.6413 123.044 49.5748 123.203 49.4417C123.361 49.3086 123.44 49.1273 123.44 48.8979C123.44 48.6248 123.361 48.4103 123.203 48.2542C123.044 48.0959 122.825 48.0168 122.545 48.0168H120.824V49.6413ZM120.824 47.3146H122.215C122.433 47.3146 122.62 47.2848 122.776 47.2251C122.932 47.1632 123.051 47.076 123.134 46.9635C123.219 46.8488 123.261 46.7134 123.261 46.5574C123.261 46.3348 123.168 46.1604 122.982 46.0342C122.796 45.9057 122.541 45.8415 122.215 45.8415H120.824V47.3146Z" fill="white"/>
</svg>
