<svg width="120" height="16" viewBox="0 0 120 16" fill="none" xmlns="http://www.w3.org/2000/svg">
<g clip-path="url(#clip0_0_2930)">
<path d="M16.8201 14.8027V8.17483C16.8201 5.67233 15.2204 4.004 12.6456 3.97367C11.2896 3.9585 9.88793 4.368 8.91285 5.85433C8.18154 4.6865 7.02363 3.97367 5.40865 3.97367C4.28121 3.97367 3.16901 4.30733 2.30058 5.53583V4.24667H0V14.8027H2.33105V8.94833C2.33105 7.11317 3.35184 6.1425 4.92111 6.1425C6.44467 6.1425 7.22169 7.1435 7.22169 8.93317V14.8027H9.55274V8.94833C9.55274 7.11317 10.6192 6.1425 12.1428 6.1425C13.7121 6.1425 14.4739 7.1435 14.4739 8.93317V14.8027H16.8201ZM51.3136 4.24667H47.5352V1.03133H45.2041V4.24667H43.0559V6.33967H45.2041V11.1627C45.2041 13.6197 46.164 15.0757 48.8911 15.0757C49.8967 15.0757 51.0394 14.7723 51.7707 14.2567L51.1003 12.285C50.4147 12.6793 49.6529 12.8765 49.0587 12.8765C47.9008 12.8765 47.5352 12.1637 47.5352 11.102V6.33967H51.3136V4.24667ZM70.9828 3.97367C69.6573 3.97367 68.7889 4.5955 68.1795 5.52067V4.24667H65.8941V14.8027H68.1947V8.88767C68.1947 7.1435 68.9565 6.17283 70.4648 6.17283C70.9371 6.17283 71.4247 6.2335 71.9122 6.43067L72.6283 4.26183C72.1255 4.06467 71.4551 3.97367 70.9828 3.97367ZM41.2276 5.08083C40.1154 4.35283 38.5919 3.97367 36.9007 3.97367C34.2192 3.97367 32.4824 5.24767 32.4824 7.35583C32.4824 9.08483 33.7622 10.1465 36.1389 10.465L37.2207 10.6167C38.4852 10.7987 39.0794 11.1172 39.0794 11.7238C39.0794 12.5428 38.2414 12.9978 36.6569 12.9978C35.0572 12.9978 33.8993 12.4822 33.1223 11.8907L32.0405 13.6803C33.3051 14.6055 34.9048 15.0453 36.6417 15.0453C39.7041 15.0453 41.4866 13.6045 41.4866 11.6025C41.4866 9.75217 40.085 8.7815 37.7844 8.44783L36.7026 8.29617C35.6971 8.15967 34.9048 7.9625 34.9048 7.26483C34.9048 6.49133 35.6666 6.02117 36.9312 6.02117C38.2871 6.02117 39.5974 6.53683 40.2373 6.93117L41.2276 5.08083ZM103.054 3.97367C101.728 3.97367 100.86 4.5955 100.25 5.52067V4.24667H97.9651V14.8027H100.266V8.88767C100.266 7.1435 101.027 6.17283 102.536 6.17283C103.008 6.17283 103.496 6.2335 103.983 6.43067L104.699 4.26183C104.181 4.06467 103.526 3.97367 103.054 3.97367ZM73.3139 9.52467C73.3139 12.7248 75.5535 15.0757 78.9663 15.0757C80.566 15.0757 81.6325 14.7268 82.7904 13.8168L81.6782 11.9665C80.8098 12.5883 79.8957 12.922 78.9053 12.922C77.0618 12.9068 75.7059 11.5722 75.7059 9.53983C75.7059 7.5075 77.0618 6.188 78.9053 6.15767C79.9109 6.15767 80.8098 6.49133 81.6782 7.11317L82.7904 5.26283C81.6325 4.35283 80.566 4.004 78.9663 4.004C75.5687 3.97367 73.3139 6.3245 73.3139 9.52467ZM94.9332 9.52467V4.24667H92.6327V5.52067C91.9013 4.56517 90.7891 3.97367 89.2808 3.97367C86.3099 3.97367 83.9788 6.29417 83.9788 9.52467C83.9788 12.7552 86.3099 15.0757 89.2808 15.0757C90.7891 15.0757 91.9013 14.4842 92.6327 13.5287V14.8027H94.9332V9.52467ZM86.3403 9.52467C86.3403 7.67433 87.5592 6.1425 89.5551 6.1425C91.4595 6.1425 92.7545 7.5985 92.7545 9.52467C92.7545 11.4508 91.4747 12.9068 89.5551 12.9068C87.5592 12.9068 86.3403 11.375 86.3403 9.52467ZM58.4896 3.97367C55.3815 3.97367 53.2028 6.2335 53.2028 9.52467C53.2028 12.8765 55.4729 15.0757 58.642 15.0757C60.2417 15.0757 61.7043 14.6813 62.9841 13.5893L61.8567 11.8907C60.973 12.6035 59.8303 12.9978 58.7791 12.9978C57.286 12.9978 55.9452 12.3153 55.6101 10.4195H63.4869C63.5021 10.1313 63.5326 9.84317 63.5326 9.53983C63.5174 6.2335 61.4758 3.97367 58.4896 3.97367ZM58.4591 6.03633C59.9522 6.03633 60.8968 6.9615 61.1406 8.5995H55.6405C55.8843 7.06767 56.8137 6.03633 58.4591 6.03633ZM116.355 9.52467V0H114.054V5.52067C113.323 4.56517 112.21 3.97367 110.702 3.97367C107.731 3.97367 105.4 6.29417 105.4 9.52467C105.4 12.7552 107.731 15.0757 110.702 15.0757C112.21 15.0757 113.323 14.4842 114.054 13.5287V14.8027H116.355V9.52467ZM119.051 13.832C119.143 13.832 119.234 13.8472 119.31 13.8775C119.386 13.9078 119.463 13.9533 119.524 14.014C119.584 14.0747 119.63 14.1505 119.676 14.2263C119.706 14.3022 119.737 14.3932 119.737 14.4842C119.737 14.5752 119.722 14.6662 119.676 14.742C119.645 14.8178 119.584 14.8937 119.524 14.9543C119.463 15.015 119.386 15.0605 119.31 15.106C119.234 15.1363 119.143 15.1667 119.051 15.1667C118.96 15.1667 118.868 15.1515 118.777 15.106C118.686 15.0757 118.625 15.015 118.564 14.9543C118.503 14.8937 118.457 14.8178 118.411 14.742C118.381 14.6662 118.35 14.5752 118.35 14.4842C118.35 14.3932 118.366 14.3022 118.411 14.2263C118.442 14.1505 118.503 14.0747 118.564 14.014C118.625 13.9533 118.701 13.9078 118.777 13.8775C118.853 13.8472 118.945 13.832 119.051 13.832ZM119.051 15.015C119.127 15.015 119.188 14.9998 119.249 14.9695C119.31 14.9392 119.371 14.9088 119.417 14.8633C119.463 14.8178 119.508 14.7572 119.524 14.6965C119.554 14.6358 119.569 14.56 119.569 14.4993C119.569 14.4235 119.554 14.3628 119.524 14.3022C119.493 14.2415 119.463 14.1808 119.417 14.1353C119.371 14.0898 119.31 14.0443 119.249 14.0292C119.188 13.9988 119.112 13.9837 119.051 13.9837C118.975 13.9837 118.914 13.9988 118.838 14.0292C118.777 14.0595 118.716 14.0898 118.67 14.1353C118.625 14.1808 118.579 14.2415 118.564 14.3022C118.533 14.3628 118.518 14.4387 118.518 14.4993C118.518 14.5752 118.533 14.6358 118.564 14.6965C118.594 14.7572 118.625 14.8178 118.67 14.8633C118.716 14.9088 118.777 14.9543 118.838 14.9695C118.899 14.9998 118.975 15.015 119.051 15.015ZM119.082 14.1808C119.158 14.1808 119.219 14.196 119.265 14.2415C119.31 14.2718 119.325 14.3325 119.325 14.3932C119.325 14.4387 119.31 14.4842 119.28 14.5145C119.249 14.5448 119.188 14.5752 119.127 14.5752L119.325 14.8027H119.158L118.975 14.5752H118.914V14.8027H118.777V14.1808H119.082ZM118.929 14.3022V14.469H119.082C119.112 14.469 119.143 14.469 119.173 14.4538C119.188 14.4387 119.204 14.4235 119.204 14.3932C119.204 14.3628 119.188 14.3477 119.173 14.3325C119.158 14.3173 119.127 14.3173 119.082 14.3173H118.929V14.3022ZM107.762 9.52467C107.762 7.67433 108.98 6.1425 110.976 6.1425C112.881 6.1425 114.176 7.5985 114.176 9.52467C114.176 11.4508 112.896 12.9068 110.976 12.9068C108.98 12.9068 107.762 11.375 107.762 9.52467ZM29.8314 9.52467V4.24667H27.5308V5.52067C26.7995 4.56517 25.6873 3.97367 24.179 3.97367C21.208 3.97367 18.877 6.29417 18.877 9.52467C18.877 12.7552 21.208 15.0757 24.179 15.0757C25.6873 15.0757 26.7995 14.4842 27.5308 13.5287V14.8027H29.8314V9.52467ZM21.2385 9.52467C21.2385 7.67433 22.4573 6.1425 24.4532 6.1425C26.3576 6.1425 27.6527 7.5985 27.6527 9.52467C27.6527 11.4508 26.3729 12.9068 24.4532 12.9068C22.4573 12.9068 21.2385 11.375 21.2385 9.52467Z" fill="white"/>
</g>
<defs>
<clipPath id="clip0_0_2930">
<rect width="119.737" height="15.1667" fill="white"/>
</clipPath>
</defs>
</svg>
