<svg width="139" height="27" viewBox="0 0 139 27" fill="none" xmlns="http://www.w3.org/2000/svg">
<rect x="0.799805" y="0.0615234" width="54.8289" height="26.8769" rx="9.6757" fill="white"/>
<path d="M13.9607 20.1204C13.2153 20.1204 12.533 19.9484 11.9138 19.6044C11.306 19.2603 10.8186 18.7443 10.4517 18.0563C10.0962 17.3567 9.91842 16.4737 9.91842 15.4073C9.91842 14.3293 10.0904 13.4463 10.4345 12.7583C10.79 12.0702 11.2716 11.5599 11.8794 11.2274C12.4871 10.8833 13.1809 10.7113 13.9607 10.7113C14.8666 10.7113 15.6636 10.9063 16.3517 11.2962C17.0512 11.6861 17.6016 12.2308 18.003 12.9303C18.4158 13.6298 18.6222 14.4555 18.6222 15.4073C18.6222 16.3591 18.4158 17.1905 18.003 17.9014C17.6016 18.601 17.0512 19.1457 16.3517 19.5356C15.6636 19.9255 14.8666 20.1204 13.9607 20.1204ZM8.86915 23.337V10.8145H10.9161V12.9819L10.8473 15.4245L11.0193 17.867V23.337H8.86915ZM13.7199 18.2799C14.2359 18.2799 14.6946 18.1652 15.096 17.9359C15.5088 17.7065 15.8356 17.3739 16.0765 16.9382C16.3173 16.5024 16.4377 15.9921 16.4377 15.4073C16.4377 14.811 16.3173 14.3007 16.0765 13.8764C15.8356 13.4406 15.5088 13.108 15.096 12.8787C14.6946 12.6493 14.2359 12.5347 13.7199 12.5347C13.2039 12.5347 12.7394 12.6493 12.3266 12.8787C11.9138 13.108 11.5869 13.4406 11.3461 13.8764C11.1053 14.3007 10.9849 14.811 10.9849 15.4073C10.9849 15.9921 11.1053 16.5024 11.3461 16.9382C11.5869 17.3739 11.9138 17.7065 12.3266 17.9359C12.7394 18.1652 13.2039 18.2799 13.7199 18.2799ZM19.8013 20V7.23668H21.9515V20H19.8013ZM29.5727 20V18.1423L29.4523 17.7466V14.4956C29.4523 13.8649 29.2631 13.3775 28.8847 13.0335C28.5062 12.678 27.9329 12.5003 27.1645 12.5003C26.6485 12.5003 26.1382 12.5805 25.6336 12.7411C25.1405 12.9016 24.722 13.1252 24.3779 13.4119L23.5351 11.8466C24.0282 11.4682 24.613 11.1872 25.2896 11.0038C25.9777 10.8088 26.6886 10.7113 27.4226 10.7113C28.7528 10.7113 29.7791 11.0324 30.5016 11.6746C31.2355 12.3053 31.6025 13.2858 31.6025 14.616V20H29.5727ZM26.6829 20.1204C25.9949 20.1204 25.3928 20.0057 24.8768 19.7764C24.3607 19.5356 23.9594 19.2087 23.6727 18.7959C23.3975 18.3716 23.2599 17.8957 23.2599 17.3682C23.2599 16.8522 23.3803 16.3877 23.6211 15.9749C23.8734 15.5621 24.2805 15.2353 24.8424 14.9944C25.4043 14.7536 26.1497 14.6332 27.0785 14.6332H29.7447V16.0609H27.2333C26.4994 16.0609 26.0063 16.1813 25.754 16.4221C25.5018 16.6515 25.3756 16.9382 25.3756 17.2822C25.3756 17.6721 25.5304 17.9817 25.84 18.2111C26.1497 18.4404 26.5797 18.5551 27.1301 18.5551C27.6576 18.5551 28.1278 18.4347 28.5406 18.1939C28.9649 17.9531 29.2688 17.5976 29.4523 17.1274L29.8135 18.4175C29.6071 18.9565 29.2344 19.375 28.6955 19.6732C28.1679 19.9713 27.4971 20.1204 26.6829 20.1204ZM36.9593 20.1204C35.9502 20.1204 35.1704 19.8624 34.6199 19.3464C34.0695 18.8188 33.7943 18.0448 33.7943 17.0242V8.78479H35.9444V16.9726C35.9444 17.4083 36.0534 17.7466 36.2713 17.9875C36.5006 18.2283 36.816 18.3487 37.2173 18.3487C37.699 18.3487 38.1003 18.2225 38.4214 17.9703L39.0235 19.5012C38.7712 19.7076 38.4615 19.8624 38.0946 19.9656C37.7276 20.0688 37.3492 20.1204 36.9593 20.1204ZM32.2806 12.6035V10.8833H38.4042V12.6035H32.2806ZM45.5914 20V18.1423L45.471 17.7466V14.4956C45.471 13.8649 45.2817 13.3775 44.9033 13.0335C44.5249 12.678 43.9515 12.5003 43.1832 12.5003C42.6672 12.5003 42.1569 12.5805 41.6523 12.7411C41.1592 12.9016 40.7406 13.1252 40.3966 13.4119L39.5537 11.8466C40.0468 11.4682 40.6317 11.1872 41.3083 11.0038C41.9963 10.8088 42.7073 10.7113 43.4412 10.7113C44.7714 10.7113 45.7978 11.0324 46.5202 11.6746C47.2542 12.3053 47.6211 13.2858 47.6211 14.616V20H45.5914ZM42.7016 20.1204C42.0135 20.1204 41.4115 20.0057 40.8954 19.7764C40.3794 19.5356 39.978 19.2087 39.6913 18.7959C39.4161 18.3716 39.2785 17.8957 39.2785 17.3682C39.2785 16.8522 39.3989 16.3877 39.6397 15.9749C39.892 15.5621 40.2991 15.2353 40.861 14.9944C41.4229 14.7536 42.1683 14.6332 43.0972 14.6332H45.7634V16.0609H43.252C42.5181 16.0609 42.025 16.1813 41.7727 16.4221C41.5204 16.6515 41.3943 16.9382 41.3943 17.2822C41.3943 17.6721 41.5491 17.9817 41.8587 18.2111C42.1683 18.4404 42.5984 18.5551 43.1488 18.5551C43.6763 18.5551 44.1465 18.4347 44.5593 18.1939C44.9836 17.9531 45.2875 17.5976 45.471 17.1274L45.8322 18.4175C45.6258 18.9565 45.2531 19.375 44.7141 19.6732C44.1866 19.9713 43.5158 20.1204 42.7016 20.1204Z" fill="#141414"/>
<path d="M69.3344 20.1548C68.4973 20.1548 67.7977 19.9828 67.2358 19.6388C66.6854 19.2947 66.2726 18.7672 65.9973 18.0563C65.7221 17.3453 65.5845 16.4336 65.5845 15.3213C65.5845 14.2319 65.7279 13.3317 66.0145 12.6207C66.3127 11.9097 66.7427 11.3822 67.3046 11.0382C67.8665 10.6941 68.5431 10.5221 69.3344 10.5221C70.183 10.5221 70.9513 10.7171 71.6393 11.107C72.3389 11.4969 72.8893 12.053 73.2907 12.7755C73.7035 13.4865 73.9099 14.3351 73.9099 15.3213C73.9099 16.3189 73.7035 17.179 73.2907 17.9014C72.8893 18.6124 72.3389 19.1686 71.6393 19.57C70.9513 19.9599 70.183 20.1548 69.3344 20.1548ZM63.4688 20V7.23668H66.737V12.2422L66.565 15.3213L66.5822 18.4003V20H63.4688ZM68.6463 17.5574C69.0133 17.5574 69.3401 17.4714 69.6268 17.2994C69.925 17.1274 70.16 16.8751 70.332 16.5426C70.5155 16.1985 70.6073 15.7914 70.6073 15.3213C70.6073 14.8511 70.5155 14.4555 70.332 14.1344C70.16 13.8018 69.925 13.5495 69.6268 13.3775C69.3401 13.2055 69.0133 13.1195 68.6463 13.1195C68.2794 13.1195 67.9468 13.2055 67.6487 13.3775C67.362 13.5495 67.1269 13.8018 66.9434 14.1344C66.7714 14.4555 66.6854 14.8511 66.6854 15.3213C66.6854 15.7914 66.7714 16.1985 66.9434 16.5426C67.1269 16.8751 67.362 17.1274 67.6487 17.2994C67.9468 17.4714 68.2794 17.5574 68.6463 17.5574ZM75.9167 23.4919C75.4236 23.4919 74.9247 23.4116 74.4202 23.251C73.9271 23.102 73.5257 22.9013 73.2161 22.649L74.3514 20.3612C74.5463 20.5332 74.7699 20.6651 75.0222 20.7569C75.286 20.8601 75.544 20.9117 75.7963 20.9117C76.1518 20.9117 76.4327 20.8314 76.6391 20.6708C76.8455 20.5103 77.0233 20.258 77.1724 19.914L77.6024 18.8303L77.8604 18.5035L81.0254 10.6769H84.1389L80.1138 20.3784C79.7927 21.1812 79.42 21.8061 78.9957 22.2534C78.5829 22.7121 78.1184 23.0332 77.6024 23.2166C77.0978 23.4001 76.5359 23.4919 75.9167 23.4919ZM77.1896 20.3956L73.0785 10.6769H76.4327L79.4601 18.2111L77.1896 20.3956ZM100.414 10.5221C101.136 10.5221 101.778 10.6712 102.34 10.9694C102.913 11.256 103.361 11.7033 103.682 12.311C104.014 12.9188 104.181 13.7043 104.181 14.6676V20H100.912V15.2009C100.912 14.5357 100.786 14.0541 100.534 13.756C100.282 13.4463 99.9376 13.2915 99.5019 13.2915C99.1922 13.2915 98.9113 13.3661 98.659 13.5151C98.4067 13.6642 98.2118 13.8936 98.0742 14.2032C97.9365 14.5013 97.8677 14.8912 97.8677 15.3729V20H94.5995V15.2009C94.5995 14.5357 94.4734 14.0541 94.2211 13.756C93.9803 13.4463 93.6362 13.2915 93.189 13.2915C92.8679 13.2915 92.5812 13.3661 92.3289 13.5151C92.0881 13.6642 91.8932 13.8936 91.7441 14.2032C91.6065 14.5013 91.5377 14.8912 91.5377 15.3729V20H88.2694V10.6769H91.3829V13.2743L90.7636 12.5347C91.1076 11.8695 91.5778 11.3707 92.1741 11.0382C92.7704 10.6941 93.4355 10.5221 94.1695 10.5221C95.0066 10.5221 95.7405 10.74 96.3712 11.1758C97.0134 11.6001 97.4434 12.2652 97.6613 13.1711L96.5948 12.9475C96.9274 12.1906 97.4262 11.6001 98.0914 11.1758C98.7679 10.74 99.542 10.5221 100.414 10.5221ZM110.18 20.1548C109.159 20.1548 108.253 19.9484 107.462 19.5356C106.671 19.1227 106.046 18.5551 105.587 17.8326C105.14 17.0987 104.916 16.2616 104.916 15.3213C104.916 14.3809 105.14 13.5495 105.587 12.8271C106.046 12.1046 106.671 11.5427 107.462 11.1414C108.253 10.7285 109.159 10.5221 110.18 10.5221C111.2 10.5221 112.106 10.7285 112.897 11.1414C113.7 11.5427 114.325 12.1046 114.772 12.8271C115.22 13.5495 115.443 14.3809 115.443 15.3213C115.443 16.2616 115.22 17.0987 114.772 17.8326C114.325 18.5551 113.7 19.1227 112.897 19.5356C112.106 19.9484 111.2 20.1548 110.18 20.1548ZM110.18 17.5574C110.558 17.5574 110.891 17.4714 111.177 17.2994C111.475 17.1274 111.711 16.8751 111.883 16.5426C112.055 16.1985 112.141 15.7914 112.141 15.3213C112.141 14.8511 112.055 14.4555 111.883 14.1344C111.711 13.8018 111.475 13.5495 111.177 13.3775C110.891 13.2055 110.558 13.1195 110.18 13.1195C109.813 13.1195 109.48 13.2055 109.182 13.3775C108.895 13.5495 108.66 13.8018 108.477 14.1344C108.305 14.4555 108.219 14.8511 108.219 15.3213C108.219 15.7914 108.305 16.1985 108.477 16.5426C108.66 16.8751 108.895 17.1274 109.182 17.2994C109.48 17.4714 109.813 17.5574 110.18 17.5574ZM122.169 10.5221C122.892 10.5221 123.545 10.6712 124.13 10.9694C124.715 11.256 125.174 11.7033 125.506 12.311C125.85 12.9188 126.022 13.7043 126.022 14.6676V20H122.754V15.2009C122.754 14.5357 122.616 14.0541 122.341 13.756C122.077 13.4463 121.705 13.2915 121.223 13.2915C120.879 13.2915 120.564 13.3718 120.277 13.5323C119.99 13.6814 119.767 13.9165 119.606 14.2376C119.446 14.5587 119.365 14.9772 119.365 15.4933V20H116.097V10.6769H119.211V13.3259L118.609 12.5519C118.964 11.8753 119.451 11.3707 120.071 11.0382C120.69 10.6941 121.389 10.5221 122.169 10.5221ZM132.01 20.1548C130.99 20.1548 130.084 19.9484 129.293 19.5356C128.501 19.1227 127.876 18.5551 127.418 17.8326C126.97 17.0987 126.747 16.2616 126.747 15.3213C126.747 14.3809 126.97 13.5495 127.418 12.8271C127.876 12.1046 128.501 11.5427 129.293 11.1414C130.084 10.7285 130.99 10.5221 132.01 10.5221C133.031 10.5221 133.937 10.7285 134.728 11.1414C135.531 11.5427 136.156 12.1046 136.603 12.8271C137.05 13.5495 137.274 14.3809 137.274 15.3213C137.274 16.2616 137.05 17.0987 136.603 17.8326C136.156 18.5551 135.531 19.1227 134.728 19.5356C133.937 19.9484 133.031 20.1548 132.01 20.1548ZM132.01 17.5574C132.389 17.5574 132.721 17.4714 133.008 17.2994C133.306 17.1274 133.541 16.8751 133.713 16.5426C133.885 16.1985 133.971 15.7914 133.971 15.3213C133.971 14.8511 133.885 14.4555 133.713 14.1344C133.541 13.8018 133.306 13.5495 133.008 13.3775C132.721 13.2055 132.389 13.1195 132.01 13.1195C131.643 13.1195 131.311 13.2055 131.013 13.3775C130.726 13.5495 130.491 13.8018 130.308 14.1344C130.136 14.4555 130.049 14.8511 130.049 15.3213C130.049 15.7914 130.136 16.1985 130.308 16.5426C130.491 16.8751 130.726 17.1274 131.013 17.2994C131.311 17.4714 131.643 17.5574 132.01 17.5574Z" fill="white"/>
</svg>
