<svg width="25" height="25" viewBox="0 0 25 25" fill="none" xmlns="http://www.w3.org/2000/svg">
<path d="M22.3174 6.69238H16.3174" stroke="white" stroke-width="1.5" stroke-miterlimit="10" stroke-linecap="round" stroke-linejoin="round"/>
<path d="M6.31738 6.69238H2.31738" stroke="white" stroke-width="1.5" stroke-miterlimit="10" stroke-linecap="round" stroke-linejoin="round"/>
<path d="M10.3174 10.1924C12.2504 10.1924 13.8174 8.62538 13.8174 6.69238C13.8174 4.75939 12.2504 3.19238 10.3174 3.19238C8.38439 3.19238 6.81738 4.75939 6.81738 6.69238C6.81738 8.62538 8.38439 10.1924 10.3174 10.1924Z" stroke="white" stroke-width="1.5" stroke-miterlimit="10" stroke-linecap="round" stroke-linejoin="round"/>
<path d="M22.3174 17.6924H18.3174" stroke="white" stroke-width="1.5" stroke-miterlimit="10" stroke-linecap="round" stroke-linejoin="round"/>
<path d="M8.31738 17.6924H2.31738" stroke="white" stroke-width="1.5" stroke-miterlimit="10" stroke-linecap="round" stroke-linejoin="round"/>
<path d="M14.3174 21.1924C16.2504 21.1924 17.8174 19.6254 17.8174 17.6924C17.8174 15.7594 16.2504 14.1924 14.3174 14.1924C12.3844 14.1924 10.8174 15.7594 10.8174 17.6924C10.8174 19.6254 12.3844 21.1924 14.3174 21.1924Z" stroke="white" stroke-width="1.5" stroke-miterlimit="10" stroke-linecap="round" stroke-linejoin="round"/>
</svg>
