<svg width="17" height="17" viewBox="0 0 17 17" fill="none" xmlns="http://www.w3.org/2000/svg">
<g clip-path="url(#clip0_352_4375)">
<path d="M4.21711 10.8139L3.37336 16.0014C3.34211 16.2098 3.40981 16.3738 3.57648 16.4936C3.74315 16.6134 3.92023 16.6212 4.10773 16.517L8.49836 14.0952L12.889 16.517C13.0661 16.6212 13.2405 16.6134 13.4124 16.4936C13.5843 16.3738 13.6546 16.2098 13.6234 16.0014L12.7796 10.8139L16.3577 7.15767C16.4931 7.01184 16.5296 6.84257 16.4671 6.64986C16.4046 6.45715 16.2744 6.34517 16.0765 6.31392L11.1546 5.56392L8.95148 0.860797C8.86815 0.69413 8.71711 0.610797 8.49836 0.610797C8.27961 0.610797 8.12856 0.69413 8.04523 0.860797L5.84211 5.56392L0.92023 6.31392C0.722314 6.34517 0.592105 6.45715 0.529605 6.64986C0.467105 6.84257 0.503564 7.01184 0.63898 7.15767L4.21711 10.8139Z" fill="#2C3339"/>
</g>
<defs>
<clipPath id="clip0_352_4375">
<rect width="16" height="16" fill="white" transform="matrix(1 0 0 -1 0.5 16.58)"/>
</clipPath>
</defs>
</svg>
