<svg width="84" height="35" viewBox="0 0 84 35" fill="none" xmlns="http://www.w3.org/2000/svg">
<path d="M28.7544 24V6.9919H31.913V24H28.7544ZM35.2985 24V6.9919H38.4572V21.3273H47.35V24H35.2985ZM48.6288 24V6.9919H51.7875V24H48.6288ZM55.1729 24V6.9919H57.7728L65.2077 19.4078H63.8471L71.1606 6.9919H73.7604L73.7847 24H70.7961L70.7718 11.6813H71.4035L65.1834 22.0562H63.7742L57.4569 11.6813H58.1858V24H55.1729ZM77.1639 24V6.9919H80.3225V24H77.1639Z" fill="#141414"/>
<rect x="1.75781" y="3.16992" width="24.2973" height="23.7691" fill="#DCB90C"/>
<path d="M22.8924 5.9082H18.4026L11.0078 14.8876L18.4026 23.603H22.8924L15.7616 14.6235L22.8924 5.9082Z" fill="#141414"/>
<path d="M8.14371 5.73822L14.4422 5.73822L8.14912 13.3033L8.14371 5.73822Z" fill="#141414"/>
<path d="M8.0109 23.9551L14.3094 23.9551L8.01631 16.3901L8.0109 23.9551Z" fill="#141414"/>
<path d="M2.73 32.4102V28.9528H3.2612V32.4102H2.73ZM3.0001 28.3766C2.89656 28.3766 2.80727 28.3414 2.73225 28.2708C2.65872 28.2003 2.62195 28.1155 2.62195 28.0165C2.62195 27.9174 2.65872 27.8327 2.73225 27.7621C2.80727 27.6916 2.89656 27.6563 3.0001 27.6563C3.10364 27.6563 3.19217 27.6916 3.2657 27.7621C3.34073 27.8327 3.37824 27.9174 3.37824 28.0165C3.37824 28.1155 3.34073 28.2003 3.2657 28.2708C3.19217 28.3414 3.10364 28.3766 3.0001 28.3766ZM6.54802 30.4384V30.9336H4.63929V30.4384H6.54802ZM4.76534 28.9528V32.4102H4.23413V28.9528H4.76534ZM6.95317 28.9528V32.4102H6.42197V28.9528H6.95317ZM7.45286 29.448V28.9528H10.2619V29.448H9.1275V32.4102H8.5963V29.448H7.45286ZM12.3068 32.4822C11.9737 32.4822 11.6864 32.4087 11.4448 32.2616C11.2047 32.113 11.0194 31.906 10.8888 31.6404C10.7598 31.3733 10.6952 31.0626 10.6952 30.7085C10.6952 30.3544 10.7598 30.0423 10.8888 29.7721C11.0194 29.5005 11.2009 29.289 11.4335 29.1374C11.6676 28.9843 11.9407 28.9078 12.2528 28.9078C12.4329 28.9078 12.6107 28.9378 12.7863 28.9979C12.9618 29.0579 13.1217 29.1554 13.2657 29.2905C13.4098 29.424 13.5246 29.6011 13.6101 29.8217C13.6956 30.0423 13.7384 30.3139 13.7384 30.6365V30.8616H11.0734V30.4024H13.1982C13.1982 30.2073 13.1592 30.0332 13.0811 29.8802C13.0046 29.7271 12.8951 29.6063 12.7525 29.5178C12.6115 29.4293 12.4449 29.385 12.2528 29.385C12.0412 29.385 11.8582 29.4375 11.7036 29.5426C11.5506 29.6461 11.4328 29.7812 11.3502 29.9477C11.2677 30.1143 11.2264 30.2928 11.2264 30.4834V30.7895C11.2264 31.0506 11.2714 31.272 11.3615 31.4535C11.453 31.6336 11.5798 31.7709 11.7419 31.8654C11.9039 31.9585 12.0923 32.005 12.3068 32.005C12.4464 32.005 12.5724 31.9855 12.685 31.9465C12.799 31.906 12.8973 31.8459 12.9799 31.7664C13.0624 31.6854 13.1262 31.5848 13.1712 31.4648L13.6844 31.6089C13.6303 31.7829 13.5396 31.936 13.412 32.068C13.2845 32.1986 13.1269 32.3006 12.9393 32.3741C12.7518 32.4462 12.5409 32.4822 12.3068 32.4822ZM14.5464 33.7067V28.9528H15.0596V29.502H15.1227C15.1617 29.442 15.2157 29.3655 15.2847 29.2725C15.3553 29.1779 15.4558 29.0939 15.5863 29.0204C15.7184 28.9453 15.897 28.9078 16.1221 28.9078C16.4132 28.9078 16.6698 28.9806 16.8918 29.1262C17.1139 29.2717 17.2872 29.478 17.4118 29.7451C17.5363 30.0122 17.5986 30.3274 17.5986 30.6905C17.5986 31.0566 17.5363 31.374 17.4118 31.6426C17.2872 31.9097 17.1147 32.1168 16.8941 32.2639C16.6735 32.4094 16.4192 32.4822 16.1311 32.4822C15.909 32.4822 15.7312 32.4454 15.5976 32.3719C15.464 32.2969 15.3613 32.2121 15.2892 32.1175C15.2172 32.0215 15.1617 31.942 15.1227 31.879H15.0777V33.7067H14.5464ZM15.0686 30.6815C15.0686 30.9426 15.1069 31.1729 15.1834 31.3725C15.26 31.5706 15.3718 31.7259 15.5188 31.8384C15.6659 31.9495 15.8459 32.005 16.059 32.005C16.2811 32.005 16.4664 31.9465 16.615 31.8294C16.765 31.7109 16.8776 31.5518 16.9526 31.3523C17.0291 31.1512 17.0674 30.9276 17.0674 30.6815C17.0674 30.4384 17.0299 30.2193 16.9549 30.0242C16.8813 29.8277 16.7695 29.6724 16.6195 29.5583C16.4709 29.4428 16.2841 29.385 16.059 29.385C15.8429 29.385 15.6614 29.4398 15.5143 29.5493C15.3673 29.6574 15.2562 29.8089 15.1812 30.004C15.1062 30.1976 15.0686 30.4234 15.0686 30.6815ZM20.7228 30.4384V30.9336H18.8141V30.4384H20.7228ZM18.9401 28.9528V32.4102H18.4089V28.9528H18.9401ZM21.128 28.9528V32.4102H20.5968V28.9528H21.128ZM23.5476 32.4822C23.2145 32.4822 22.9272 32.4087 22.6856 32.2616C22.4455 32.113 22.2601 31.906 22.1296 31.6404C22.0005 31.3733 21.936 31.0626 21.936 30.7085C21.936 30.3544 22.0005 30.0423 22.1296 29.7721C22.2601 29.5005 22.4417 29.289 22.6743 29.1374C22.9084 28.9843 23.1815 28.9078 23.4936 28.9078C23.6737 28.9078 23.8515 28.9378 24.0271 28.9979C24.2026 29.0579 24.3624 29.1554 24.5065 29.2905C24.6506 29.424 24.7654 29.6011 24.8509 29.8217C24.9364 30.0423 24.9792 30.3139 24.9792 30.6365V30.8616H22.3142V30.4024H24.439C24.439 30.2073 24.4 30.0332 24.3219 29.8802C24.2454 29.7271 24.1359 29.6063 23.9933 29.5178C23.8523 29.4293 23.6857 29.385 23.4936 29.385C23.282 29.385 23.099 29.4375 22.9444 29.5426C22.7913 29.6461 22.6736 29.7812 22.591 29.9477C22.5085 30.1143 22.4672 30.2928 22.4672 30.4834V30.7895C22.4672 31.0506 22.5122 31.272 22.6023 31.4535C22.6938 31.6336 22.8206 31.7709 22.9827 31.8654C23.1447 31.9585 23.3331 32.005 23.5476 32.005C23.6872 32.005 23.8132 31.9855 23.9258 31.9465C24.0398 31.906 24.1381 31.8459 24.2206 31.7664C24.3032 31.6854 24.367 31.5848 24.412 31.4648L24.9252 31.6089C24.8711 31.7829 24.7804 31.936 24.6528 32.068C24.5253 32.1986 24.3677 32.3006 24.1801 32.3741C23.9926 32.4462 23.7817 32.4822 23.5476 32.4822ZM25.4654 29.448V28.9528H28.2744V29.448H27.14V32.4102H26.6088V29.448H25.4654ZM32.7227 31.6899L33.9292 28.9528H34.4334L32.9388 32.4102H32.5066L31.0391 28.9528H31.5343L32.7227 31.6899ZM31.3632 28.9528V32.4102H30.832V28.9528H31.3632ZM34.0822 32.4102V28.9528H34.6134V32.4102H34.0822ZM36.6032 32.4912C36.3841 32.4912 36.1853 32.4499 36.0067 32.3674C35.8281 32.2834 35.6863 32.1626 35.5813 32.005C35.4763 31.8459 35.4237 31.6539 35.4237 31.4288C35.4237 31.2307 35.4628 31.0701 35.5408 30.9471C35.6188 30.8225 35.7231 30.725 35.8537 30.6545C35.9842 30.584 36.1283 30.5314 36.2858 30.4969C36.4449 30.4609 36.6047 30.4324 36.7653 30.4114C36.9753 30.3844 37.1456 30.3641 37.2762 30.3506C37.4082 30.3356 37.5043 30.3109 37.5643 30.2763C37.6258 30.2418 37.6566 30.1818 37.6566 30.0963V30.0783C37.6566 29.8562 37.5958 29.6836 37.4743 29.5606C37.3542 29.4375 37.1719 29.376 36.9273 29.376C36.6737 29.376 36.4749 29.4315 36.3308 29.5426C36.1868 29.6536 36.0855 29.7721 36.027 29.8982L35.5228 29.7181C35.6128 29.508 35.7329 29.3445 35.8829 29.2274C36.0345 29.1089 36.1995 29.0264 36.3781 28.9798C36.5582 28.9318 36.7352 28.9078 36.9093 28.9078C37.0204 28.9078 37.1479 28.9213 37.292 28.9483C37.4375 28.9738 37.5778 29.0271 37.7129 29.1081C37.8494 29.1892 37.9627 29.3115 38.0527 29.475C38.1428 29.6386 38.1878 29.8577 38.1878 30.1323V32.4102H37.6566V31.942H37.6296C37.5936 32.017 37.5335 32.0973 37.4495 32.1828C37.3655 32.2684 37.2537 32.3411 37.1141 32.4012C36.9746 32.4612 36.8043 32.4912 36.6032 32.4912ZM36.6842 32.014C36.8943 32.014 37.0714 31.9727 37.2154 31.8902C37.361 31.8077 37.4705 31.7011 37.5441 31.5706C37.6191 31.44 37.6566 31.3027 37.6566 31.1587V30.6725C37.6341 30.6995 37.5846 30.7243 37.508 30.7468C37.433 30.7678 37.346 30.7865 37.2469 30.803C37.1494 30.818 37.0541 30.8316 36.9611 30.8436C36.8695 30.8541 36.7953 30.8631 36.7382 30.8706C36.6002 30.8886 36.4711 30.9178 36.3511 30.9584C36.2325 30.9974 36.1365 31.0566 36.063 31.1362C35.991 31.2142 35.9549 31.3207 35.9549 31.4558C35.9549 31.6404 36.0232 31.7799 36.1598 31.8745C36.2978 31.9675 36.4726 32.014 36.6842 32.014ZM41.2912 28.9528V29.448H39.6886V32.4102H39.1574V28.9528H41.2912ZM42.9045 32.4912C42.6854 32.4912 42.4866 32.4499 42.308 32.3674C42.1294 32.2834 41.9876 32.1626 41.8826 32.005C41.7775 31.8459 41.725 31.6539 41.725 31.4288C41.725 31.2307 41.764 31.0701 41.8421 30.9471C41.9201 30.8225 42.0244 30.725 42.1549 30.6545C42.2855 30.584 42.4295 30.5314 42.5871 30.4969C42.7462 30.4609 42.906 30.4324 43.0665 30.4114C43.2766 30.3844 43.4469 30.3641 43.5775 30.3506C43.7095 30.3356 43.8056 30.3109 43.8656 30.2763C43.9271 30.2418 43.9579 30.1818 43.9579 30.0963V30.0783C43.9579 29.8562 43.8971 29.6836 43.7756 29.5606C43.6555 29.4375 43.4732 29.376 43.2286 29.376C42.975 29.376 42.7762 29.4315 42.6321 29.5426C42.4881 29.6536 42.3868 29.7721 42.3283 29.8982L41.8241 29.7181C41.9141 29.508 42.0341 29.3445 42.1842 29.2274C42.3358 29.1089 42.5008 29.0264 42.6794 28.9798C42.8595 28.9318 43.0365 28.9078 43.2106 28.9078C43.3216 28.9078 43.4492 28.9213 43.5932 28.9483C43.7388 28.9738 43.8791 29.0271 44.0141 29.1081C44.1507 29.1892 44.264 29.3115 44.354 29.475C44.4441 29.6386 44.4891 29.8577 44.4891 30.1323V32.4102H43.9579V31.942H43.9309C43.8949 32.017 43.8348 32.0973 43.7508 32.1828C43.6668 32.2684 43.555 32.3411 43.4154 32.4012C43.2759 32.4612 43.1055 32.4912 42.9045 32.4912ZM42.9855 32.014C43.1956 32.014 43.3727 31.9727 43.5167 31.8902C43.6623 31.8077 43.7718 31.7011 43.8453 31.5706C43.9204 31.44 43.9579 31.3027 43.9579 31.1587V30.6725C43.9354 30.6995 43.8858 30.7243 43.8093 30.7468C43.7343 30.7678 43.6473 30.7865 43.5482 30.803C43.4507 30.818 43.3554 30.8316 43.2624 30.8436C43.1708 30.8541 43.0965 30.8631 43.0395 30.8706C42.9015 30.8886 42.7724 30.9178 42.6524 30.9584C42.5338 30.9974 42.4378 31.0566 42.3643 31.1362C42.2922 31.2142 42.2562 31.3207 42.2562 31.4558C42.2562 31.6404 42.3245 31.7799 42.4611 31.8745C42.5991 31.9675 42.7739 32.014 42.9855 32.014ZM45.2426 31.5278H45.8098C45.8218 31.6839 45.8923 31.8024 46.0214 31.8835C46.1519 31.9645 46.3215 32.005 46.53 32.005C46.7431 32.005 46.9254 31.9615 47.077 31.8745C47.2286 31.7859 47.3043 31.6434 47.3043 31.4468C47.3043 31.3312 47.2758 31.2307 47.2188 31.1452C47.1618 31.0581 47.0815 30.9906 46.978 30.9426C46.8744 30.8946 46.7521 30.8706 46.6111 30.8706H46.0168V30.3934H46.6111C46.8227 30.3934 46.9787 30.3454 47.0793 30.2493C47.1813 30.1533 47.2323 30.0332 47.2323 29.8892C47.2323 29.7346 47.1775 29.6108 47.068 29.5178C46.9585 29.4233 46.8031 29.376 46.6021 29.376C46.3995 29.376 46.2307 29.4218 46.0956 29.5133C45.9606 29.6033 45.8893 29.7196 45.8818 29.8622H45.3236C45.3296 29.6761 45.3866 29.5118 45.4946 29.3692C45.6027 29.2252 45.7497 29.1126 45.9358 29.0316C46.1219 28.9491 46.335 28.9078 46.5751 28.9078C46.8182 28.9078 47.029 28.9506 47.2076 29.0361C47.3876 29.1201 47.5264 29.2349 47.624 29.3805C47.723 29.5246 47.7725 29.6881 47.7725 29.8712C47.7725 30.0663 47.7177 30.2238 47.6082 30.3439C47.4987 30.4639 47.3614 30.5494 47.1963 30.6005V30.6365C47.3269 30.6455 47.4401 30.6875 47.5362 30.7625C47.6337 30.8361 47.7095 30.9328 47.7635 31.0529C47.8175 31.1714 47.8445 31.3027 47.8445 31.4468C47.8445 31.6569 47.7883 31.8399 47.6757 31.996C47.5632 32.1506 47.4086 32.2706 47.2121 32.3561C47.0155 32.4402 46.7911 32.4822 46.539 32.4822C46.2945 32.4822 46.0754 32.4424 45.8818 32.3629C45.6882 32.2819 45.5344 32.1701 45.4204 32.0275C45.3078 31.8835 45.2486 31.7169 45.2426 31.5278ZM49.1219 31.6269L50.7875 28.9528H51.3998V32.4102H50.8686V29.7361L49.2119 32.4102H48.5907V28.9528H49.1219V31.6269ZM54.6866 30.4384V30.9336H52.7779V30.4384H54.6866ZM52.9039 28.9528V32.4102H52.3727V28.9528H52.9039ZM55.0918 28.9528V32.4102H54.5606V28.9528H55.0918ZM57.8446 32.4102V28.9528H58.3758V30.4564H58.7269L59.9694 28.9528H60.6536L59.2581 30.6185L60.6716 32.4102H59.9874L58.8529 30.9516H58.3758V32.4102H57.8446ZM61.7802 31.6269L63.4458 28.9528H64.0581V32.4102H63.5269V29.7361L61.8702 32.4102H61.249V28.9528H61.7802V31.6269ZM64.7249 32.4102V31.915H64.8509C64.9545 31.915 65.0407 31.8947 65.1098 31.8542C65.1788 31.8122 65.2343 31.7394 65.2763 31.6359C65.3199 31.5308 65.3529 31.3853 65.3754 31.1992C65.3994 31.0116 65.4166 30.773 65.4271 30.4834L65.4902 28.9528H67.795V32.4102H67.2638V29.448H65.9944L65.9403 30.6815C65.9283 30.9651 65.9028 31.2149 65.8638 31.431C65.8263 31.6456 65.7685 31.8257 65.6905 31.9712C65.614 32.1168 65.5119 32.2263 65.3844 32.2999C65.2568 32.3734 65.097 32.4102 64.9049 32.4102H64.7249ZM69.3009 31.6269L70.9665 28.9528H71.5787V32.4102H71.0475V29.7361L69.3909 32.4102H68.7697V28.9528H69.3009V31.6269ZM74.4424 31.6899L75.6489 28.9528H76.1531L74.6585 32.4102H74.2263L72.7588 28.9528H73.2539L74.4424 31.6899ZM73.0829 28.9528V32.4102H72.5517V28.9528H73.0829ZM75.8019 32.4102V28.9528H76.3331V32.4102H75.8019ZM77.3055 32.4102V28.9528H77.8367V32.4102H77.3055ZM77.5756 28.3766C77.4721 28.3766 77.3828 28.3414 77.3077 28.2708C77.2342 28.2003 77.1975 28.1155 77.1975 28.0165C77.1975 27.9174 77.2342 27.8327 77.3077 27.7621C77.3828 27.6916 77.4721 27.6563 77.5756 27.6563C77.6791 27.6563 77.7677 27.6916 77.8412 27.7621C77.9162 27.8327 77.9537 27.9174 77.9537 28.0165C77.9537 28.1155 77.9162 28.2003 77.8412 28.2708C77.7677 28.3414 77.6791 28.3766 77.5756 28.3766ZM78.8096 32.4102V28.9528H80.2232C80.5953 28.9528 80.8909 29.0369 81.11 29.2049C81.3291 29.373 81.4386 29.5951 81.4386 29.8712C81.4386 30.0813 81.3764 30.2441 81.2518 30.3596C81.1273 30.4737 80.9675 30.5509 80.7724 30.5915C80.8999 30.6095 81.0237 30.6545 81.1438 30.7265C81.2653 30.7985 81.3659 30.8976 81.4454 31.0236C81.5249 31.1482 81.5647 31.3012 81.5647 31.4828C81.5647 31.6599 81.5197 31.8182 81.4296 31.9577C81.3396 32.0973 81.2106 32.2076 81.0425 32.2886C80.8744 32.3696 80.6733 32.4102 80.4393 32.4102H78.8096ZM79.3138 31.924H80.4393C80.6223 31.924 80.7656 31.8805 80.8692 31.7934C80.9727 31.7064 81.0245 31.5878 81.0245 31.4378C81.0245 31.2592 80.9727 31.1189 80.8692 31.0169C80.7656 30.9133 80.6223 30.8616 80.4393 30.8616H79.3138V31.924ZM79.3138 30.4024H80.2232C80.3657 30.4024 80.488 30.3829 80.5901 30.3439C80.6921 30.3034 80.7701 30.2463 80.8242 30.1728C80.8797 30.0978 80.9074 30.0092 80.9074 29.9072C80.9074 29.7616 80.8467 29.6476 80.7251 29.5651C80.6036 29.481 80.4363 29.439 80.2232 29.439H79.3138V30.4024Z" fill="#141414"/>
</svg>
