<svg width="17" height="16" viewBox="0 0 17 16" fill="none" xmlns="http://www.w3.org/2000/svg">
<path d="M4.21711 10.234L3.37336 15.4215C3.34211 15.6298 3.40981 15.7939 3.57648 15.9137C3.74315 16.0334 3.92023 16.0413 4.10773 15.9371L8.49836 13.5152L12.889 15.9371C13.0661 16.0413 13.2405 16.0334 13.4124 15.9137C13.5843 15.7939 13.6546 15.6298 13.6234 15.4215L12.7796 10.234L16.3577 6.57772C16.4931 6.43188 16.5296 6.26261 16.4671 6.0699C16.4046 5.8772 16.2744 5.76522 16.0765 5.73397L11.1546 4.98397L8.95148 0.280841C8.86815 0.114174 8.71711 0.0308409 8.49836 0.0308409C8.27961 0.0308409 8.12856 0.114174 8.04523 0.280841L5.84211 4.98397L0.92023 5.73397C0.722314 5.76522 0.592105 5.8772 0.529605 6.0699C0.467105 6.26261 0.503564 6.43188 0.63898 6.57772L4.21711 10.234Z" fill="#DCB90C"/>
</svg>
