<svg width="17" height="17" viewBox="0 0 17 17" fill="none" xmlns="http://www.w3.org/2000/svg">
<g clip-path="url(#clip0_0_3140)">
<path d="M4.21711 11.2183L3.37336 16.4058C3.34211 16.6142 3.40981 16.7782 3.57648 16.898C3.74315 17.0178 3.92023 17.0256 4.10773 16.9215L8.49836 14.4996L12.889 16.9215C13.0661 17.0256 13.2405 17.0178 13.4124 16.898C13.5843 16.7782 13.6546 16.6142 13.6234 16.4058L12.7796 11.2183L16.3577 7.56209C16.4931 7.41626 16.5296 7.24699 16.4671 7.05428C16.4046 6.86157 16.2744 6.74959 16.0765 6.71834L11.1546 5.96834L8.95148 1.26522C8.86815 1.09855 8.71711 1.01522 8.49836 1.01522C8.27961 1.01522 8.12856 1.09855 8.04523 1.26522L5.84211 5.96834L0.92023 6.71834C0.722314 6.74959 0.592105 6.86157 0.529605 7.05428C0.467105 7.24699 0.503564 7.41626 0.63898 7.56209L4.21711 11.2183Z" fill="#DCB90C"/>
</g>
<defs>
<clipPath id="clip0_0_3140">
<rect width="16" height="16" fill="white" transform="matrix(1 0 0 -1 0.5 16.9844)"/>
</clipPath>
</defs>
</svg>
