<svg width="13" height="12" viewBox="0 0 13 12" fill="none" xmlns="http://www.w3.org/2000/svg">
<path d="M11.0641 9.165C11.0641 9.345 11.0241 9.53 10.9391 9.71C10.8541 9.89 10.7441 10.06 10.5991 10.22C10.3541 10.49 10.0841 10.685 9.7791 10.81C9.4791 10.935 9.1541 11 8.8041 11C8.2941 11 7.7491 10.88 7.1741 10.635C6.5991 10.39 6.0241 10.06 5.4541 9.645C4.8791 9.225 4.3341 8.76 3.8141 8.245C3.2991 7.725 2.8341 7.18 2.4191 6.61C2.0091 6.04 1.6791 5.47 1.4391 4.905C1.1991 4.335 1.0791 3.79 1.0791 3.27C1.0791 2.93 1.1391 2.605 1.2591 2.305C1.3791 2 1.5691 1.72 1.8341 1.47C2.1541 1.155 2.5041 1 2.8741 1C3.0141 1 3.1541 1.03 3.2791 1.09C3.4091 1.15 3.5241 1.24 3.6141 1.37L4.7741 3.005C4.8641 3.13 4.9291 3.245 4.9741 3.355C5.0191 3.46 5.0441 3.565 5.0441 3.66C5.0441 3.78 5.0091 3.9 4.9391 4.015C4.8741 4.13 4.7791 4.25 4.6591 4.37L4.2791 4.765C4.2241 4.82 4.1991 4.885 4.1991 4.965C4.1991 5.005 4.2041 5.04 4.2141 5.08C4.2291 5.12 4.2441 5.15 4.2541 5.18C4.3441 5.345 4.4991 5.56 4.7191 5.82C4.9441 6.08 5.1841 6.345 5.4441 6.61C5.7141 6.875 5.9741 7.12 6.2391 7.345C6.4991 7.565 6.7141 7.715 6.8841 7.805C6.9091 7.815 6.9391 7.83 6.9741 7.845C7.0141 7.86 7.0541 7.865 7.0991 7.865C7.1841 7.865 7.2491 7.835 7.3041 7.78L7.6841 7.405C7.8091 7.28 7.9291 7.185 8.0441 7.125C8.1591 7.055 8.2741 7.02 8.3991 7.02C8.4941 7.02 8.5941 7.04 8.7041 7.085C8.8141 7.13 8.9291 7.195 9.0541 7.28L10.7091 8.455C10.8391 8.545 10.9291 8.65 10.9841 8.775C11.0341 8.9 11.0641 9.025 11.0641 9.165Z" stroke="white" stroke-miterlimit="10"/>
<path d="M9.3291 4.5C9.3291 4.2 9.0941 3.74 8.7441 3.365C8.4241 3.02 7.9991 2.75 7.5791 2.75" stroke="white" stroke-linecap="round" stroke-linejoin="round"/>
<path d="M11.0791 4.5C11.0791 2.565 9.5141 1 7.5791 1" stroke="white" stroke-linecap="round" stroke-linejoin="round"/>
</svg>
