<svg width="93" height="93" viewBox="0 0 93 93" fill="none" xmlns="http://www.w3.org/2000/svg">
<g clip-path="url(#clip0_0_2968)">
<path d="M46.5362 93.0725C72.2375 93.0725 93.0725 72.2375 93.0725 46.5362C93.0725 20.835 72.2375 0 46.5362 0C20.835 0 0 20.835 0 46.5362C0 72.2375 20.835 93.0725 46.5362 93.0725Z" fill="#DCB90C"/>
<path fill-rule="evenodd" clip-rule="evenodd" d="M21.0247 46.0296C34.5797 40.0857 43.6405 36.2439 48.2071 34.3593C61.1097 28.9953 63.7917 28.053 65.5314 27.9805C65.8938 27.9805 66.7636 28.053 67.3435 28.4879C67.7784 28.8503 67.9234 29.3577 67.9959 29.7201C68.0684 30.0826 68.1409 30.8799 68.0684 31.5323C67.3435 38.8534 64.3716 56.7576 62.7769 64.9485C62.1245 68.4279 60.8197 69.5876 59.5875 69.7326C56.9055 69.9501 54.8034 67.9205 52.1939 66.2533C48.1346 63.5713 45.8151 61.9041 41.8283 59.2946C37.2617 56.2502 40.2336 54.583 42.8431 51.901C43.4955 51.1761 55.4558 40.3756 55.6732 39.3608C55.6732 39.2159 55.7457 38.7809 55.4558 38.5635C55.1658 38.346 54.8034 38.4185 54.5134 38.491C54.0785 38.5635 47.5547 42.9127 34.8696 51.466C32.985 52.7708 31.3178 53.3507 29.7956 53.3507C28.1284 53.3507 24.939 52.4084 22.5469 51.611C19.6475 50.6687 17.3279 50.1613 17.5454 48.5666C17.6904 47.7692 18.8501 46.8994 21.0247 46.0296Z" fill="#FDFDFD"/>
</g>
<defs>
<clipPath id="clip0_0_2968">
<rect width="93" height="93" fill="white"/>
</clipPath>
</defs>
</svg>
