<svg width="39" height="39" viewBox="0 0 39 39" fill="none" xmlns="http://www.w3.org/2000/svg">
<g clip-path="url(#clip0_0_2952)">
<path d="M19.5152 39.0304C30.2931 39.0304 39.0304 30.2931 39.0304 19.5152C39.0304 8.73725 30.2931 0 19.5152 0C8.73725 0 0 8.73725 0 19.5152C0 30.2931 8.73725 39.0304 19.5152 39.0304Z" fill="#FCFCFC"/>
<path fill-rule="evenodd" clip-rule="evenodd" d="M8.81657 19.3034C14.5009 16.8108 18.3006 15.1997 20.2156 14.4094C25.6264 12.1599 26.7511 11.7648 27.4806 11.7344C27.6326 11.7344 27.9974 11.7648 28.2406 11.9472C28.423 12.0991 28.4838 12.3119 28.5142 12.4639C28.5446 12.6159 28.575 12.9503 28.5446 13.2239C28.2406 16.294 26.9943 23.8022 26.3255 27.2371C26.052 28.6962 25.5048 29.1825 24.988 29.2433C23.8633 29.3345 22.9818 28.4834 21.8875 27.7843C20.1852 26.6596 19.2125 25.9604 17.5407 24.8661C15.6256 23.5894 16.8719 22.8903 17.9662 21.7656C18.2398 21.4616 23.2554 16.9323 23.3466 16.5068C23.3466 16.446 23.377 16.2636 23.2554 16.1724C23.1338 16.0812 22.9818 16.1116 22.8602 16.142C22.6778 16.1724 19.9421 17.9963 14.6225 21.5832C13.8322 22.1303 13.133 22.3735 12.4947 22.3735C11.7955 22.3735 10.458 21.9783 9.45492 21.644C8.23902 21.2488 7.2663 21.036 7.35749 20.3673C7.41829 20.0329 7.90465 19.6681 8.81657 19.3034Z" fill="#141414"/>
</g>
<defs>
<clipPath id="clip0_0_2952">
<rect width="39" height="39" fill="white"/>
</clipPath>
</defs>
</svg>
