<svg width="64" height="21" viewBox="0 0 64 21" fill="none" xmlns="http://www.w3.org/2000/svg">
<path d="M41.5685 0.185547C37.0444 0.185547 32.9824 2.53964 32.9824 6.85953C32.9824 11.8347 40.1578 12.1744 40.1578 14.6499C40.1578 15.6934 38.9416 16.6399 36.8984 16.6399C33.9796 16.6399 31.7905 15.3294 31.7905 15.3294L30.8663 19.6978C30.8663 19.6978 33.3716 20.8142 36.7282 20.8142C41.6901 20.8142 45.5819 18.363 45.5819 13.9461C45.5819 8.70397 38.3822 8.36421 38.3822 6.05865C38.3822 5.2335 39.3794 4.33555 41.4226 4.33555C43.7333 4.33555 45.6305 5.28204 45.6305 5.28204L46.5548 1.05923C46.5305 1.05923 44.463 0.185547 41.5685 0.185547ZM0.121616 0.501044L0 1.13204C0 1.13204 1.89722 1.4718 3.62417 2.17561C5.83759 2.97648 5.98353 3.4376 6.3727 4.86947L10.4347 20.4744H15.8831L24.226 0.501044H18.8019L13.4265 14.0917L11.2374 2.56391C11.0428 1.25338 10.0212 0.501044 8.75639 0.501044H0.121616ZM26.4151 0.501044L22.1585 20.4744H27.3394L31.5716 0.501044H26.4151ZM55.2625 0.501044C54.022 0.501044 53.3653 1.15631 52.8788 2.32122L45.29 20.4744H50.7141L51.76 17.4408H58.3759L59.0083 20.4744H63.8L59.6407 0.501044H55.2625ZM55.9679 5.91304L57.5732 13.4122H53.268L55.9679 5.91304Z" fill="white"/>
</svg>
