<svg width="54" height="38" viewBox="0 0 54 38" fill="none" xmlns="http://www.w3.org/2000/svg">
<g clip-path="url(#clip0_0_2948)">
<path d="M21.4773 26.9581V10.9551L35.5909 18.957L21.4773 26.9581ZM52.8715 5.9197C52.2505 3.58916 50.4207 1.75396 48.0974 1.13111C43.8863 -0.000831604 27 -0.000831604 27 -0.000831604C27 -0.000831604 10.1137 -0.000831604 5.90254 1.13111C3.57922 1.75396 1.74934 3.58916 1.12839 5.9197C0 10.1436 0 18.9566 0 18.9566C0 18.9566 0 27.7695 1.12839 31.9936C1.74934 34.3241 3.57922 36.1593 5.90254 36.7824C10.1137 37.9141 27 37.9141 27 37.9141C27 37.9141 43.8863 37.9141 48.0974 36.7824C50.4207 36.1593 52.2505 34.3241 52.8715 31.9936C54 27.7695 54 18.9566 54 18.9566C54 18.9566 54 10.1436 52.8715 5.9197Z" fill="white"/>
</g>
<defs>
<clipPath id="clip0_0_2948">
<rect width="54" height="37.9149" fill="white"/>
</clipPath>
</defs>
</svg>
